<svg width="13" height="20" viewBox="0 0 13 20" fill="none" xmlns="http://www.w3.org/2000/svg">
<path d="M12.5627 5.39929C12.5627 6.3518 12.3132 7.20168 11.8143 7.94632C11.3153 8.69096 10.6339 9.2751 9.77012 9.70399C10.8056 10.1776 11.6024 10.8223 12.163 11.6432C12.721 12.4641 13 13.3903 13 14.4244C13 16.1347 12.4098 17.4924 11.2295 18.4949C10.0491 19.4974 8.47709 20 6.51341 20C4.54168 20 2.9643 19.4974 1.77858 18.4897C0.59286 17.4819 0 16.1295 0 14.427C0 13.3851 0.281676 12.4484 0.845027 11.6195C1.40838 10.7907 2.19975 10.1539 3.21647 9.70662C2.36339 9.27773 1.68737 8.69359 1.19377 7.94895C0.697483 7.20432 0.450681 6.35706 0.450681 5.40192C0.450681 3.74424 0.995254 2.43126 2.08708 1.4577C3.17086 0.486778 4.64362 0 6.49732 0C8.35906 0 9.83719 0.486778 10.9263 1.4577C12.0155 2.42863 12.5627 3.74161 12.5627 5.39929ZM9.68696 14.2639C9.68696 13.3009 9.39455 12.5247 8.80706 11.9326C8.21956 11.3406 7.44697 11.0433 6.4839 11.0433C5.52084 11.0433 4.75093 11.338 4.17416 11.9247C3.5974 12.5141 3.30768 13.293 3.30768 14.2639C3.30768 15.2164 3.59204 15.9795 4.16075 16.5505C4.72947 17.1214 5.51279 17.4056 6.51073 17.4056C7.51135 17.4056 8.28931 17.1293 8.8473 16.5768C9.40797 16.0242 9.68696 15.2533 9.68696 14.2639ZM9.2631 5.52033C9.2631 4.67307 9.01362 3.97579 8.51465 3.4285C8.01568 2.8812 7.34234 2.60755 6.49732 2.60755C5.65229 2.60755 4.98432 2.86804 4.4934 3.38903C4.00248 3.91001 3.75836 4.62044 3.75836 5.52033C3.75836 6.41231 4.00516 7.12012 4.50144 7.64636C4.99773 8.17261 5.6657 8.43573 6.51073 8.43573C7.35576 8.43573 8.02641 8.17261 8.52002 7.64636C9.0163 7.12012 9.2631 6.41231 9.2631 5.52033Z" fill="#9D5C63"/>
</svg>
