<svg width="28" height="20" viewBox="0 0 28 20" fill="none" xmlns="http://www.w3.org/2000/svg">
<path d="M7.64883 20H5.11887C4.92406 20 4.7677 19.8397 4.7677 19.6401V4.48969C4.7677 4.24274 4.53188 4.06936 4.30375 4.14817L0.463954 5.49061C0.235822 5.56942 0 5.39603 0 5.14909V3.11047C0 2.96072 0.0922785 2.82412 0.230696 2.77158L7.52836 0.0210167C7.56681 0.00525415 7.60782 0 7.64883 0C7.84364 0 8 0.160252 8 0.35991V19.6401C8 19.8371 7.84364 20 7.64883 20Z" fill="#9D5C63"/>
<path d="M27.9973 11.5388C27.9973 14.3372 27.4628 16.4486 26.3938 17.8676C25.3248 19.2892 23.6998 20 21.5188 20C19.3727 20 17.7558 19.3076 16.6707 17.9202C15.5829 16.5355 15.0269 14.482 15 11.7652V8.39542C15 5.59695 15.5345 3.49875 16.6035 2.0982C17.6725 0.700276 19.3029 0 21.4946 0C23.6676 0 25.2872 0.681848 26.3562 2.04554C27.4252 3.40924 27.9731 5.44952 28 8.16901V11.5388H27.9973ZM24.6829 7.90312C24.6829 6.07608 24.4277 4.73608 23.92 3.88574C23.4097 3.03541 22.6012 2.60892 21.4919 2.60892C20.4095 2.60892 19.6145 3.01171 19.1041 3.81993C18.5938 4.62551 18.3279 5.88653 18.2983 7.59773V12.01C18.2983 13.8291 18.5562 15.1823 19.0746 16.0748C19.593 16.9672 20.4068 17.4121 21.5161 17.4121C22.5798 17.4121 23.3667 16.9988 23.8771 16.1748C24.3847 15.3508 24.6533 14.0608 24.6829 12.3049V7.90312Z" fill="#9D5C63"/>
</svg>
