<svg width="21" height="25" viewBox="0 0 21 25" fill="none" xmlns="http://www.w3.org/2000/svg">
<path fill-rule="evenodd" clip-rule="evenodd" d="M10.6565 7.3824C11.5861 7.3824 13.3292 6.08999 15.1644 6.27846C15.9325 6.31106 18.0879 6.59449 19.4724 8.65924C19.3619 8.73293 16.8989 10.194 16.9287 13.2365C16.9599 16.8729 20.0535 18.0803 20.0889 18.0987C20.0605 18.1809 19.5943 19.8219 18.4578 21.5168C17.4757 22.9807 16.4582 24.4375 14.854 24.4673C13.2768 24.4984 12.7694 23.5135 10.9654 23.5135C9.16286 23.5135 8.60026 24.4375 7.10661 24.4984C5.55769 24.558 4.37864 22.9169 3.38948 21.4587C1.36583 18.4728 -0.180243 13.0254 1.89584 9.34795C2.92609 7.52129 4.76834 6.36491 6.76933 6.33515C8.28991 6.30681 9.72687 7.3824 10.6565 7.3824ZM15.595 0.5C15.758 1.8817 15.1614 3.26906 14.2814 4.26813C13.3971 5.26579 11.9502 6.04238 10.5316 5.9375C10.3403 4.58131 11.056 3.1727 11.8722 2.28558C12.7849 1.28793 14.3253 0.548188 15.595 0.5Z" fill="white"/>
</svg>
