<svg width="24" height="25" viewBox="0 0 24 25" fill="none" xmlns="http://www.w3.org/2000/svg">
<path d="M24 12.4995C24 9.31705 22.7363 6.26493 20.4869 4.01458C18.2375 1.76424 15.1867 0.500005 12.0055 0.500005C8.98525 0.497215 6.07508 1.63446 3.85634 3.68457C1.6376 5.73468 0.273647 8.54674 0.0369209 11.559C-0.199805 14.5713 0.708128 17.562 2.57936 19.9338C4.45059 22.3056 7.14736 23.8839 10.131 24.3533V15.9674H7.08783V12.4995H10.1327V9.8562C10.1327 6.84946 11.9233 5.18667 14.6632 5.18667C15.9757 5.18667 17.3482 5.42152 17.3482 5.42152V8.37512H15.8352C14.3445 8.37512 13.8818 9.30079 13.8818 10.2488V12.4995H17.2077L16.6765 15.9674H13.8801V24.3533C16.7014 23.9064 19.2707 22.467 21.1258 20.294C22.9809 18.121 24.0001 15.3572 24 12.4995Z" fill="white"/>
<path d="M16.6749 15.9674L17.2061 12.4995H13.8802V10.2488C13.8802 9.3008 14.3428 8.37512 15.8336 8.37512H17.3466V5.41981C17.3466 5.41981 15.9741 5.18497 14.6615 5.18497C11.9199 5.18497 10.1311 6.84776 10.1311 9.85449V12.4995H7.08789V15.9674H10.1328V24.3533C11.3748 24.5489 12.6398 24.5489 13.8819 24.3533V15.9674H16.6749Z" fill="#1877F2"/>
</svg>
