<svg width="28" height="28" viewBox="0 0 28 28" fill="none" xmlns="http://www.w3.org/2000/svg">
<path d="M21.3125 0H5.8125C2.60234 0 0 2.60234 0 5.8125V21.3125C0 24.5227 2.60234 27.125 5.8125 27.125H21.3125C24.5227 27.125 27.125 24.5227 27.125 21.3125V5.8125C27.125 2.60234 24.5227 0 21.3125 0Z" fill="white"/>
<path d="M21.3125 0H5.8125C2.60234 0 0 2.60234 0 5.8125V21.3125C0 24.5227 2.60234 27.125 5.8125 27.125H21.3125C24.5227 27.125 27.125 24.5227 27.125 21.3125V5.8125C27.125 2.60234 24.5227 0 21.3125 0Z" fill="white"/>
<path d="M21.3125 0H5.8125C2.60234 0 0 2.60234 0 5.8125V21.3125C0 24.5227 2.60234 27.125 5.8125 27.125H21.3125C24.5227 27.125 27.125 24.5227 27.125 21.3125V5.8125C27.125 2.60234 24.5227 0 21.3125 0Z" fill="white"/>
<path d="M17.7891 27.4565V17.6976H21.2987L21.8242 13.8945H17.7891V11.4664C17.7891 10.3653 18.1167 9.61488 19.8085 9.61488L21.9662 9.614V6.2124C21.5931 6.16605 20.3122 6.0625 18.822 6.0625C15.711 6.0625 13.5811 7.83488 13.5811 11.0897V13.8945H10.0625V17.6976H13.5811V27.4565H17.7891Z" fill="#42383F"/>
</svg>
