<svg width="28" height="28" viewBox="0 0 28 28" fill="none" xmlns="http://www.w3.org/2000/svg">
<path d="M21.4375 0.165771H5.9375C2.72734 0.165771 0.125 2.76812 0.125 5.97827V21.4783C0.125 24.6884 2.72734 27.2908 5.9375 27.2908H21.4375C24.6477 27.2908 27.25 24.6884 27.25 21.4783V5.97827C27.25 2.76812 24.6477 0.165771 21.4375 0.165771Z" fill="white"/>
<path d="M21.4375 0.165771H5.9375C2.72734 0.165771 0.125 2.76812 0.125 5.97827V21.4783C0.125 24.6884 2.72734 27.2908 5.9375 27.2908H21.4375C24.6477 27.2908 27.25 24.6884 27.25 21.4783V5.97827C27.25 2.76812 24.6477 0.165771 21.4375 0.165771Z" fill="white"/>
<path d="M21.4375 0.165771H5.9375C2.72734 0.165771 0.125 2.76812 0.125 5.97827V21.4783C0.125 24.6884 2.72734 27.2908 5.9375 27.2908H21.4375C24.6477 27.2908 27.25 24.6884 27.25 21.4783V5.97827C27.25 2.76812 24.6477 0.165771 21.4375 0.165771Z" fill="white"/>
<path d="M20.4688 8.40015C20.4688 9.20266 19.8181 9.85327 19.0156 9.85327C18.2131 9.85327 17.5625 9.20266 17.5625 8.40015C17.5625 7.5976 18.2131 6.94702 19.0156 6.94702C19.8181 6.94702 20.4688 7.5976 20.4688 8.40015Z" fill="#42383F"/>
<path fill-rule="evenodd" clip-rule="evenodd" d="M13.6875 18.572C16.3626 18.572 18.5312 16.4034 18.5312 13.7283C18.5312 11.0532 16.3626 8.88452 13.6875 8.88452C11.0124 8.88452 8.84375 11.0532 8.84375 13.7283C8.84375 16.4034 11.0124 18.572 13.6875 18.572ZM13.6875 16.6345C15.2926 16.6345 16.5938 15.3334 16.5938 13.7283C16.5938 12.1231 15.2926 10.822 13.6875 10.822C12.0824 10.822 10.7812 12.1231 10.7812 13.7283C10.7812 15.3334 12.0824 16.6345 13.6875 16.6345Z" fill="#42383F"/>
<path fill-rule="evenodd" clip-rule="evenodd" d="M4 13.3408C4 10.0855 4 8.45779 4.63352 7.21445C5.19079 6.12076 6.07998 5.23156 7.17368 4.6743C8.41702 4.04077 10.0447 4.04077 13.3 4.04077H14.075C17.3303 4.04077 18.958 4.04077 20.2013 4.6743C21.295 5.23156 22.1842 6.12076 22.7414 7.21445C23.375 8.45779 23.375 10.0855 23.375 13.3408V14.1158C23.375 17.3711 23.375 18.9988 22.7414 20.2421C22.1842 21.3358 21.295 22.225 20.2013 22.7822C18.958 23.4158 17.3303 23.4158 14.075 23.4158H13.3C10.0447 23.4158 8.41702 23.4158 7.17368 22.7822C6.07998 22.225 5.19079 21.3358 4.63352 20.2421C4 18.9988 4 17.3711 4 14.1158V13.3408ZM13.3 5.97827H14.075C15.7347 5.97827 16.8628 5.97978 17.7348 6.05102C18.5843 6.12043 19.0187 6.24622 19.3217 6.40062C20.0508 6.77213 20.6436 7.36493 21.0151 8.09402C21.1695 8.39705 21.2954 8.83143 21.3647 9.68093C21.4359 10.553 21.4375 11.6811 21.4375 13.3408V14.1158C21.4375 15.7754 21.4359 16.9035 21.3647 17.7756C21.2954 18.6251 21.1695 19.0595 21.0151 19.3625C20.6436 20.0916 20.0508 20.6844 19.3217 21.0559C19.0187 21.2103 18.5843 21.3362 17.7348 21.4055C16.8628 21.4767 15.7347 21.4783 14.075 21.4783H13.3C11.6403 21.4783 10.5122 21.4767 9.64016 21.4055C8.79066 21.3362 8.35628 21.2103 8.05325 21.0559C7.32416 20.6844 6.73136 20.0916 6.35985 19.3625C6.20545 19.0595 6.07965 18.6251 6.01025 17.7756C5.93901 16.9035 5.9375 15.7754 5.9375 14.1158V13.3408C5.9375 11.6811 5.93901 10.553 6.01025 9.68093C6.07965 8.83143 6.20545 8.39705 6.35985 8.09402C6.73136 7.36493 7.32416 6.77213 8.05325 6.40062C8.35628 6.24622 8.79066 6.12043 9.64016 6.05102C10.5122 5.97978 11.6403 5.97827 13.3 5.97827Z" fill="#42383F"/>
</svg>
