<svg width="28" height="28" viewBox="0 0 28 28" fill="none" xmlns="http://www.w3.org/2000/svg">
<path d="M21.4375 0.165771H5.9375C2.72734 0.165771 0.125 2.76812 0.125 5.97827V21.4783C0.125 24.6884 2.72734 27.2908 5.9375 27.2908H21.4375C24.6477 27.2908 27.25 24.6884 27.25 21.4783V5.97827C27.25 2.76812 24.6477 0.165771 21.4375 0.165771Z" fill="white"/>
<path d="M20.4688 8.35938C20.4688 9.16189 19.8181 9.8125 19.0156 9.8125C18.2131 9.8125 17.5625 9.16189 17.5625 8.35938C17.5625 7.55683 18.2131 6.90625 19.0156 6.90625C19.8181 6.90625 20.4688 7.55683 20.4688 8.35938Z" fill="#42383F"/>
<path fill-rule="evenodd" clip-rule="evenodd" d="M13.6875 18.5312C16.3626 18.5312 18.5312 16.3626 18.5312 13.6875C18.5312 11.0124 16.3626 8.84375 13.6875 8.84375C11.0124 8.84375 8.84375 11.0124 8.84375 13.6875C8.84375 16.3626 11.0124 18.5312 13.6875 18.5312ZM13.6875 16.5938C15.2926 16.5938 16.5938 15.2926 16.5938 13.6875C16.5938 12.0824 15.2926 10.7812 13.6875 10.7812C12.0824 10.7812 10.7812 12.0824 10.7812 13.6875C10.7812 15.2926 12.0824 16.5938 13.6875 16.5938Z" fill="#42383F"/>
<path fill-rule="evenodd" clip-rule="evenodd" d="M4 13.3C4 10.0447 4 8.41702 4.63352 7.17368C5.19079 6.07998 6.07998 5.19079 7.17368 4.63352C8.41702 4 10.0447 4 13.3 4H14.075C17.3303 4 18.958 4 20.2013 4.63352C21.295 5.19079 22.1842 6.07998 22.7414 7.17368C23.375 8.41702 23.375 10.0447 23.375 13.3V14.075C23.375 17.3303 23.375 18.958 22.7414 20.2013C22.1842 21.295 21.295 22.1842 20.2013 22.7414C18.958 23.375 17.3303 23.375 14.075 23.375H13.3C10.0447 23.375 8.41702 23.375 7.17368 22.7414C6.07998 22.1842 5.19079 21.295 4.63352 20.2013C4 18.958 4 17.3303 4 14.075V13.3ZM13.3 5.9375H14.075C15.7347 5.9375 16.8628 5.93901 17.7348 6.01025C18.5843 6.07965 19.0187 6.20545 19.3217 6.35985C20.0508 6.73136 20.6436 7.32416 21.0151 8.05325C21.1695 8.35628 21.2954 8.79066 21.3647 9.64016C21.436 10.5122 21.4375 11.6403 21.4375 13.3V14.075C21.4375 15.7347 21.436 16.8628 21.3647 17.7348C21.2954 18.5843 21.1695 19.0187 21.0151 19.3217C20.6436 20.0508 20.0508 20.6436 19.3217 21.0151C19.0187 21.1695 18.5843 21.2954 17.7348 21.3647C16.8628 21.436 15.7347 21.4375 14.075 21.4375H13.3C11.6403 21.4375 10.5122 21.436 9.64016 21.3647C8.79066 21.2954 8.35628 21.1695 8.05325 21.0151C7.32416 20.6436 6.73136 20.0508 6.35985 19.3217C6.20545 19.0187 6.07965 18.5843 6.01025 17.7348C5.93901 16.8628 5.9375 15.7347 5.9375 14.075V13.3C5.9375 11.6403 5.93901 10.5122 6.01025 9.64016C6.07965 8.79066 6.20545 8.35628 6.35985 8.05325C6.73136 7.32416 7.32416 6.73136 8.05325 6.35985C8.35628 6.20545 8.79066 6.07965 9.64016 6.01025C10.5122 5.93901 11.6403 5.9375 13.3 5.9375Z" fill="#42383F"/>
</svg>
