<svg width="40" height="40" viewBox="0 0 40 40" fill="none" xmlns="http://www.w3.org/2000/svg">
<g clip-path="url(#clip0_701_6)">
<path d="M40 20C40 8.95375 31.0463 0 20 0C8.95375 0 0 8.95375 0 20C0 31.0463 8.95375 40 20 40C31.0463 40 40 31.0463 40 20ZM2.46125 20C2.46125 10.35 10.35 2.5 20 2.5C29.65 2.5 37.5 10.35 37.5 20C37.5 29.65 29.65 37.5 20 37.5C10.35 37.5 2.46125 29.65 2.46125 20ZM21.2638 28.7625V14.6825L25.785 19.2038C26.2725 19.6912 27.0638 19.6912 27.5525 19.2038C28.0413 18.7162 28.04 17.9238 27.5525 17.4363L19.9738 10.0525L12.395 17.4363C12.1513 17.68 12.0288 18 12.0288 18.32C12.0288 18.64 12.1513 18.9587 12.395 19.2038C12.8825 19.6912 13.675 19.6912 14.1625 19.2038L18.7613 14.6038V28.7625C18.7613 29.4525 19.3213 30.0125 20.0113 30.0125C20.7013 30.0125 21.2613 29.4525 21.2613 28.7625H21.2638Z" fill="#D9D3D8"/>
</g>
<defs>
<clipPath id="clip0_701_6">
<rect width="40" height="40" fill="white"/>
</clipPath>
</defs>
</svg>
