<svg width="800" height="800" viewBox="0 0 800 800" fill="none" xmlns="http://www.w3.org/2000/svg">
<path d="M400 166.667C274.754 166.667 181.201 248.013 125.579 314.645C83.8404 364.647 83.8404 435.353 125.579 485.357C181.201 551.987 274.754 633.333 400 633.333C525.247 633.333 618.8 551.987 674.42 485.357C716.16 435.353 716.16 364.647 674.42 314.645C618.8 248.013 525.247 166.667 400 166.667Z" stroke="#999999" stroke-width="50" stroke-linecap="round" stroke-linejoin="round"/>
<path d="M400 500C455.23 500 500 455.23 500 400C500 344.77 455.23 300 400 300C344.77 300 300 344.77 300 400C300 455.23 344.77 500 400 500Z" stroke="#999999" stroke-width="50" stroke-linecap="round" stroke-linejoin="round"/>
</svg>
