<svg width="31" height="30" viewBox="0 0 31 30" fill="none" xmlns="http://www.w3.org/2000/svg">
<path d="M27.8906 29.2761C28.4112 29.7968 29.2555 29.7968 29.7762 29.2761C30.2968 28.7555 30.2968 27.9112 29.7762 27.3905L27.8906 29.2761ZM22.1667 12.3333C22.1667 17.488 17.988 21.6667 12.8334 21.6667V24.3333C19.4608 24.3333 24.8334 18.9608 24.8334 12.3333H22.1667ZM12.8334 21.6667C7.67872 21.6667 3.50004 17.488 3.50004 12.3333H0.833374C0.833374 18.9608 6.20596 24.3333 12.8334 24.3333V21.6667ZM3.50004 12.3333C3.50004 7.17868 7.67872 3 12.8334 3V0.333336C6.20596 0.333336 0.833374 5.70592 0.833374 12.3333H3.50004ZM12.8334 3C17.988 3 22.1667 7.17868 22.1667 12.3333H24.8334C24.8334 5.70592 19.4608 0.333336 12.8334 0.333336V3ZM19.2239 20.6095L27.8906 29.2761L29.7762 27.3905L21.1095 18.7239L19.2239 20.6095Z" fill="#FEF5EF"/>
</svg>
