<svg width="25" height="25" viewBox="0 0 25 25" fill="none" xmlns="http://www.w3.org/2000/svg">
<path fill-rule="evenodd" clip-rule="evenodd" d="M5.52326 12.5C5.52326 11.7205 5.65553 10.9733 5.89163 10.2724L1.75916 7.184C0.953767 8.78436 0.5 10.5876 0.5 12.5C0.5 14.4107 0.953209 16.2129 1.75749 17.8122L5.88772 14.7178C5.65386 14.0202 5.52326 13.2756 5.52326 12.5Z" fill="#FBBC05"/>
<path fill-rule="evenodd" clip-rule="evenodd" d="M12.7792 5.40909C14.5094 5.40909 16.0722 6.00909 17.3001 6.99091L20.8722 3.5C18.6955 1.64545 15.9048 0.5 12.7792 0.5C7.92672 0.5 3.7563 3.21582 1.75928 7.184L5.89174 10.2724C6.84393 7.44364 9.55816 5.40909 12.7792 5.40909Z" fill="#EB4335"/>
<path fill-rule="evenodd" clip-rule="evenodd" d="M12.7792 19.5909C9.55816 19.5909 6.84393 17.5564 5.89174 14.7276L1.75928 17.8155C3.7563 21.7842 7.92672 24.5 12.7792 24.5C15.7742 24.5 18.6335 23.4593 20.7796 21.5093L16.857 18.5415C15.7502 19.2238 14.3565 19.5909 12.7792 19.5909Z" fill="#34A853"/>
<path fill-rule="evenodd" clip-rule="evenodd" d="M24.5002 12.5C24.5002 11.7909 24.3886 11.0273 24.2212 10.3182H12.7793V14.9545H19.3653C19.036 16.5353 18.1397 17.7505 16.8571 18.5415L20.7797 21.5093C23.034 19.4616 24.5002 16.4115 24.5002 12.5Z" fill="#4285F4"/>
</svg>
