<svg width="190" height="57" viewBox="0 0 190 57" fill="none" xmlns="http://www.w3.org/2000/svg">
<path d="M183.24 56.4242H6.65563C2.98652 56.4242 0 53.4225 0 49.7478V6.66652C0 2.99048 2.98652 0 6.65563 0H183.24C186.908 0 190 2.99048 190 6.66652V49.7478C190 53.4225 186.908 56.4242 183.24 56.4242Z" fill="black"/>
<path d="M188.638 49.7492C188.638 52.734 186.225 55.1518 183.242 55.1518H6.6556C3.6733 55.1518 1.25256 52.734 1.25256 49.7492V6.66505C1.25256 3.68161 3.6733 1.25537 6.6556 1.25537H183.24C186.225 1.25537 188.636 3.68161 188.636 6.66505L188.638 49.7492Z" fill="black"/>
<path d="M42.4024 27.9074C42.3616 23.361 46.1165 21.1492 46.2882 21.0462C44.1616 17.9387 40.8655 17.5141 39.7072 17.4802C36.9388 17.1882 34.2535 19.1405 32.8433 19.1405C31.4049 19.1405 29.2333 17.5084 26.8927 17.5564C23.8809 17.6029 21.0633 19.3507 19.5179 22.0647C16.3287 27.5985 18.7073 35.7306 21.7627 40.2037C23.2912 42.3943 25.0772 44.8403 27.4149 44.7543C29.7019 44.6598 30.5562 43.2929 33.3161 43.2929C36.0507 43.2929 36.853 44.7543 39.2371 44.6993C41.6916 44.6598 43.237 42.4987 44.7119 40.2883C46.4782 37.7774 47.1876 35.3046 47.2157 35.1777C47.158 35.1579 42.4488 33.3566 42.4024 27.9074Z" fill="white"/>
<path d="M37.8986 14.5377C39.1286 12.996 39.9703 10.8984 39.7366 8.76978C37.9563 8.84877 35.7297 10.0041 34.4476 11.512C33.3132 12.8408 32.2999 15.0188 32.5617 17.067C34.5616 17.2165 36.615 16.0556 37.8986 14.5377Z" fill="white"/>
<path d="M75.5005 44.4396H72.3042L70.5534 38.9255H64.4678L62.8 44.4396H59.6882L65.7176 25.6672H69.4416L75.5005 44.4396ZM70.0256 36.6121L68.4423 31.7103C68.2748 31.2095 67.961 30.0302 67.4979 28.1739H67.4416C67.2573 28.9723 66.9603 30.1516 66.5522 31.7103L64.997 36.6121H70.0256Z" fill="white"/>
<path d="M91.0059 37.505C91.0059 39.8071 90.3852 41.6268 89.1439 42.9626C88.032 44.1518 86.6513 44.7457 85.0033 44.7457C83.2243 44.7457 81.9464 44.1052 81.1681 42.8244H81.1118V49.955H78.1112V35.3595C78.1112 33.9122 78.0732 32.4268 78 30.9034H80.6389L80.8064 33.0489H80.8627C81.8633 31.4324 83.3819 30.6255 85.4199 30.6255C87.013 30.6255 88.343 31.256 89.407 32.5185C90.4739 33.7824 91.0059 35.4441 91.0059 37.505ZM87.949 37.615C87.949 36.2975 87.6534 35.2114 87.0595 34.3565C86.4107 33.465 85.5395 33.0193 84.4473 33.0193C83.707 33.0193 83.0343 33.2676 82.4333 33.757C81.831 34.2507 81.4369 34.8954 81.2525 35.6938C81.1596 36.0662 81.1132 36.3709 81.1132 36.6107V38.8677C81.1132 39.8523 81.4144 40.6831 82.0167 41.3616C82.6191 42.0401 83.4016 42.3787 84.3643 42.3787C85.4944 42.3787 86.3741 41.9414 87.0032 41.0696C87.6337 40.1964 87.949 39.0454 87.949 37.615Z" fill="white"/>
<path d="M106.539 37.505C106.539 39.8071 105.919 41.6268 104.676 42.9626C103.566 44.1518 102.185 44.7457 100.537 44.7457C98.7578 44.7457 97.4799 44.1052 96.703 42.8244H96.6467V49.955H93.6461V35.3595C93.6461 33.9122 93.6081 32.4268 93.5349 30.9034H96.1738L96.3413 33.0489H96.3976C97.3968 31.4324 98.9154 30.6255 100.955 30.6255C102.547 30.6255 103.877 31.256 104.943 32.5185C106.006 33.7824 106.539 35.4441 106.539 37.505ZM103.482 37.615C103.482 36.2975 103.186 35.2114 102.592 34.3565C101.943 33.465 101.074 33.0193 99.9808 33.0193C99.2391 33.0193 98.5678 33.2676 97.9654 33.757C97.3631 34.2507 96.9704 34.8954 96.786 35.6938C96.6945 36.0662 96.6467 36.3709 96.6467 36.6107V38.8677C96.6467 39.8523 96.9479 40.6831 97.5474 41.3616C98.1498 42.0387 98.9323 42.3787 99.8978 42.3787C101.028 42.3787 101.908 41.9414 102.537 41.0696C103.167 40.1964 103.482 39.0454 103.482 37.615Z" fill="white"/>
<path d="M123.907 39.1752C123.907 40.772 123.354 42.0712 122.243 43.0742C121.023 44.1702 119.324 44.7175 117.141 44.7175C115.126 44.7175 113.51 44.3282 112.287 43.5481L112.982 41.0415C114.3 41.8399 115.745 42.2405 117.32 42.2405C118.45 42.2405 119.33 41.9838 119.962 41.4731C120.591 40.9625 120.905 40.2769 120.905 39.4221C120.905 38.6604 120.646 38.0185 120.126 37.498C119.61 36.9775 118.747 36.4937 117.542 36.0465C114.263 34.8207 112.625 33.025 112.625 30.6636C112.625 29.1204 113.199 27.8551 114.349 26.8705C115.495 25.8845 117.023 25.3922 118.934 25.3922C120.639 25.3922 122.055 25.6898 123.185 26.2837L122.435 28.7353C121.379 28.1598 120.186 27.8721 118.85 27.8721C117.794 27.8721 116.97 28.133 116.379 28.6521C115.879 29.1162 115.628 29.6819 115.628 30.3519C115.628 31.0939 115.914 31.7075 116.488 32.1899C116.988 32.6357 117.896 33.1181 119.213 33.6386C120.825 34.2889 122.008 35.0492 122.77 35.921C123.528 36.7899 123.907 37.8775 123.907 39.1752Z" fill="white"/>
<path d="M133.828 33.1605H130.52V39.7325C130.52 41.4041 131.103 42.2392 132.271 42.2392C132.807 42.2392 133.252 42.1926 133.604 42.0995L133.687 44.3833C133.096 44.6047 132.317 44.7162 131.353 44.7162C130.168 44.7162 129.242 44.3537 128.574 43.63C127.908 42.905 127.573 41.689 127.573 39.9808V33.1577H125.603V30.9007H127.573V28.4223L130.52 27.5308V30.9007H133.828V33.1605Z" fill="white"/>
<path d="M148.75 37.5602C148.75 39.6408 148.156 41.3491 146.971 42.6849C145.729 44.0603 144.079 44.7458 142.023 44.7458C140.041 44.7458 138.464 44.0871 137.287 42.7696C136.11 41.4521 135.522 39.789 135.522 37.7845C135.522 35.6869 136.127 33.9688 137.342 32.633C138.554 31.2957 140.189 30.6271 142.245 30.6271C144.227 30.6271 145.821 31.2858 147.025 32.6047C148.176 33.8842 148.75 35.536 148.75 37.5602ZM145.637 37.6575C145.637 36.4091 145.371 35.3385 144.832 34.4456C144.203 33.3651 143.304 32.8262 142.138 32.8262C140.932 32.8262 140.016 33.3665 139.387 34.4456C138.848 35.3399 138.582 36.4275 138.582 37.714C138.582 38.9623 138.848 40.033 139.387 40.9245C140.036 42.005 140.942 42.5439 142.112 42.5439C143.257 42.5439 144.157 41.9937 144.805 40.8963C145.358 39.9864 145.637 38.9045 145.637 37.6575Z" fill="white"/>
<path d="M158.504 33.5483C158.207 33.4933 157.89 33.465 157.558 33.465C156.502 33.465 155.686 33.8642 155.112 34.6641C154.612 35.3694 154.362 36.2609 154.362 37.3372V44.4396H151.363L151.391 35.1662C151.391 33.6061 151.353 32.1856 151.278 30.9048H153.892L154.001 33.4947H154.084C154.401 32.6046 154.901 31.888 155.585 31.3505C156.253 30.8667 156.975 30.6255 157.754 30.6255C158.031 30.6255 158.281 30.6452 158.504 30.6805V33.5483Z" fill="white"/>
<path d="M171.923 37.0311C171.923 37.5699 171.888 38.0241 171.813 38.3951H162.812C162.847 39.7324 163.282 40.755 164.118 41.4604C164.876 42.0909 165.857 42.4069 167.062 42.4069C168.395 42.4069 169.611 42.1939 170.704 41.7665L171.175 43.8542C169.897 44.4128 168.388 44.6906 166.647 44.6906C164.553 44.6906 162.909 44.0728 161.713 42.8385C160.519 41.6042 159.921 39.9468 159.921 37.8675C159.921 35.8264 160.477 34.1266 161.59 32.771C162.755 31.3237 164.33 30.6001 166.312 30.6001C168.258 30.6001 169.732 31.3237 170.733 32.771C171.525 33.9207 171.923 35.3426 171.923 37.0311ZM169.062 36.251C169.082 35.3595 168.886 34.5893 168.479 33.939C167.96 33.1025 167.162 32.685 166.088 32.685C165.107 32.685 164.309 33.0926 163.7 33.9108C163.2 34.5611 162.903 35.3411 162.812 36.2496L169.062 36.251Z" fill="white"/>
<path d="M69.0334 14.1187C69.0334 15.779 68.5366 17.0288 67.5443 17.8681C66.6253 18.6425 65.3192 19.0305 63.6275 19.0305C62.7887 19.0305 62.0709 18.9938 61.47 18.9204V9.84882C62.2539 9.72187 63.0983 9.65698 64.0103 9.65698C65.6218 9.65698 66.8364 10.0082 67.6555 10.7107C68.5732 11.5049 69.0334 12.6404 69.0334 14.1187ZM67.4782 14.1596C67.4782 13.0833 67.1939 12.2581 66.6253 11.6826C66.0567 11.1085 65.2263 10.8207 64.1328 10.8207C63.6683 10.8207 63.2729 10.8518 62.9449 10.9167V17.8131C63.1265 17.8413 63.4586 17.854 63.9414 17.854C65.0701 17.854 65.9413 17.5394 66.5549 16.9103C67.1686 16.2812 67.4782 15.3643 67.4782 14.1596Z" fill="white"/>
<path d="M77.2794 15.5689C77.2794 16.5916 76.988 17.4295 76.4054 18.0868C75.7946 18.7625 74.9853 19.0996 73.9748 19.0996C73.0009 19.0996 72.2254 18.7766 71.6469 18.1277C71.0699 17.4803 70.7814 16.6635 70.7814 15.6789C70.7814 14.6492 71.0783 13.8042 71.6751 13.1483C72.2718 12.4924 73.074 12.1637 74.0846 12.1637C75.0585 12.1637 75.841 12.4867 76.4335 13.1342C76.9965 13.7633 77.2794 14.5758 77.2794 15.5689ZM75.7495 15.6169C75.7495 15.0032 75.6172 14.4771 75.354 14.0384C75.0444 13.508 74.6039 13.2428 74.0311 13.2428C73.4386 13.2428 72.9882 13.508 72.6786 14.0384C72.414 14.4771 72.2831 15.0117 72.2831 15.6437C72.2831 16.2573 72.4154 16.7834 72.6786 17.2221C72.998 17.7525 73.4428 18.0177 74.017 18.0177C74.58 18.0177 75.0219 17.7483 75.34 17.208C75.613 16.7609 75.7495 16.2305 75.7495 15.6169Z" fill="white"/>
<path d="M88.3359 12.2991L86.2599 18.9487H84.9088L84.0489 16.0612C83.8307 15.3403 83.6534 14.6238 83.5155 13.9128H83.4887C83.3607 14.6435 83.1833 15.3587 82.9553 16.0612L82.0419 18.9487H80.6753L78.7233 12.2991H80.239L80.9892 15.4602C81.1707 16.2079 81.3199 16.9202 81.4396 17.5945H81.4663C81.5761 17.0387 81.7576 16.3306 82.0138 15.4743L82.9553 12.3005H84.1573L85.0594 15.4066C85.2776 16.1641 85.4549 16.8934 85.5914 17.5959H85.6322C85.7322 16.9118 85.8827 16.1825 86.0826 15.4066L86.8876 12.3005H88.3359V12.2991Z" fill="white"/>
<path d="M95.9825 18.9487H94.5076V15.14C94.5076 13.9664 94.0628 13.3796 93.1705 13.3796C92.7328 13.3796 92.3796 13.5404 92.1051 13.8634C91.8335 14.1865 91.6956 14.5673 91.6956 15.0032V18.9473H90.2206V14.1992C90.2206 13.6152 90.2023 12.9818 90.1671 12.2963H91.4633L91.5323 13.3359H91.5731C91.7448 13.0128 92.001 12.7462 92.3373 12.5332C92.737 12.285 93.1846 12.1594 93.6744 12.1594C94.2936 12.1594 94.8087 12.3597 95.2183 12.7618C95.7278 13.2541 95.9825 13.989 95.9825 14.9651V18.9487Z" fill="white"/>
<path d="M100.05 18.9488H98.5763V9.24805H100.05V18.9488Z" fill="white"/>
<path d="M108.734 15.5689C108.734 16.5916 108.442 17.4295 107.86 18.0868C107.249 18.7625 106.438 19.0996 105.429 19.0996C104.454 19.0996 103.678 18.7766 103.101 18.1277C102.524 17.4803 102.236 16.6635 102.236 15.6789C102.236 14.6492 102.533 13.8042 103.129 13.1483C103.726 12.4924 104.528 12.1637 105.537 12.1637C106.513 12.1637 107.294 12.4867 107.888 13.1342C108.451 13.7633 108.734 14.5758 108.734 15.5689ZM107.202 15.6169C107.202 15.0032 107.07 14.4771 106.807 14.0384C106.499 13.508 106.057 13.2428 105.485 13.2428C104.891 13.2428 104.441 13.508 104.133 14.0384C103.868 14.4771 103.737 15.0117 103.737 15.6437C103.737 16.2573 103.87 16.7834 104.133 17.2221C104.452 17.7525 104.897 18.0177 105.471 18.0177C106.034 18.0177 106.475 17.7483 106.793 17.208C107.067 16.7609 107.202 16.2305 107.202 15.6169Z" fill="white"/>
<path d="M115.872 18.9487H114.548L114.438 18.1828H114.397C113.944 18.7935 113.298 19.0996 112.459 19.0996C111.833 19.0996 111.326 18.8979 110.945 18.4973C110.598 18.1334 110.425 17.6806 110.425 17.1431C110.425 16.3306 110.763 15.7114 111.443 15.2825C112.121 14.8537 113.075 14.6435 114.304 14.6534V14.5293C114.304 13.6533 113.845 13.216 112.926 13.216C112.272 13.216 111.695 13.381 111.197 13.7083L110.897 12.7378C111.513 12.3555 112.275 12.1637 113.173 12.1637C114.906 12.1637 115.776 13.0806 115.776 14.9144V17.3632C115.776 18.0276 115.809 18.5566 115.872 18.9487ZM114.341 16.6635V15.638C112.714 15.6098 111.9 16.057 111.9 16.9781C111.9 17.3251 111.993 17.5847 112.183 17.7582C112.373 17.9317 112.615 18.0177 112.904 18.0177C113.227 18.0177 113.53 17.9147 113.806 17.7102C114.083 17.5043 114.253 17.2433 114.317 16.9231C114.332 16.8511 114.341 16.7637 114.341 16.6635Z" fill="white"/>
<path d="M124.253 18.9488H122.944L122.875 17.881H122.834C122.416 18.6935 121.704 19.0997 120.704 19.0997C119.904 19.0997 119.238 18.7852 118.711 18.156C118.183 17.5269 117.92 16.7102 117.92 15.7072C117.92 14.6309 118.205 13.7592 118.78 13.0934C119.336 12.4727 120.017 12.1624 120.827 12.1624C121.718 12.1624 122.342 12.4628 122.696 13.0651H122.725V9.24805H124.201V17.1573C124.201 17.8048 124.218 18.4015 124.253 18.9488ZM122.725 16.1445V15.0358C122.725 14.8439 122.71 14.6888 122.684 14.5703C122.601 14.2148 122.422 13.9157 122.15 13.6745C121.876 13.4333 121.545 13.312 121.164 13.312C120.613 13.312 120.183 13.5306 119.866 13.9693C119.552 14.408 119.393 14.9681 119.393 15.6522C119.393 16.3095 119.544 16.8427 119.846 17.2532C120.166 17.6905 120.597 17.9092 121.136 17.9092C121.62 17.9092 122.007 17.7272 122.301 17.3619C122.585 17.0247 122.725 16.6185 122.725 16.1445Z" fill="white"/>
<path d="M136.868 15.5689C136.868 16.5916 136.576 17.4295 135.994 18.0868C135.383 18.7625 134.575 19.0996 133.563 19.0996C132.591 19.0996 131.815 18.7766 131.235 18.1277C130.658 17.4803 130.37 16.6635 130.37 15.6789C130.37 14.6492 130.667 13.8042 131.263 13.1483C131.86 12.4924 132.662 12.1637 133.674 12.1637C134.647 12.1637 135.431 12.4867 136.022 13.1342C136.585 13.7633 136.868 14.5758 136.868 15.5689ZM135.339 15.6169C135.339 15.0032 135.207 14.4771 134.944 14.0384C134.633 13.508 134.194 13.2428 133.619 13.2428C133.028 13.2428 132.578 13.508 132.267 14.0384C132.002 14.4771 131.871 15.0117 131.871 15.6437C131.871 16.2573 132.004 16.7834 132.267 17.2221C132.586 17.7525 133.031 18.0177 133.605 18.0177C134.168 18.0177 134.612 17.7483 134.93 17.208C135.201 16.7609 135.339 16.2305 135.339 15.6169Z" fill="white"/>
<path d="M144.798 18.9487H143.325V15.14C143.325 13.9664 142.88 13.3796 141.986 13.3796C141.549 13.3796 141.195 13.5404 140.922 13.8634C140.649 14.1865 140.513 14.5673 140.513 15.0032V18.9473H139.036V14.1992C139.036 13.6152 139.019 12.9818 138.984 12.2963H140.279L140.348 13.3359H140.389C140.562 13.0128 140.818 12.7462 141.153 12.5332C141.554 12.285 142 12.1594 142.492 12.1594C143.109 12.1594 143.624 12.3597 144.034 12.7618C144.545 13.2541 144.798 13.989 144.798 14.9651V18.9487Z" fill="white"/>
<path d="M154.725 13.4064H153.101V16.6367C153.101 17.4577 153.389 17.8682 153.961 17.8682C154.225 17.8682 154.445 17.8456 154.618 17.7991L154.656 18.9205C154.364 19.0305 153.982 19.0855 153.51 19.0855C152.927 19.0855 152.474 18.9078 152.146 18.5523C151.817 18.1969 151.654 17.5988 151.654 16.7595V13.4064H150.684V12.2991H151.654V11.0804L153.099 10.6431V12.2977H154.723L154.725 13.4064Z" fill="white"/>
<path d="M162.533 18.9488H161.057V15.1684C161.057 13.9764 160.612 13.3797 159.721 13.3797C159.037 13.3797 158.57 13.7253 158.314 14.4165C158.27 14.5618 158.245 14.7395 158.245 14.9483V18.9474H156.771V9.24805H158.245V13.2556H158.273C158.737 12.5263 159.403 12.1624 160.266 12.1624C160.876 12.1624 161.382 12.3627 161.783 12.7647C162.282 13.2655 162.533 14.0103 162.533 14.9949V18.9488Z" fill="white"/>
<path d="M170.588 15.3093C170.588 15.5745 170.568 15.7974 170.533 15.9794H166.109C166.129 16.6367 166.34 17.1375 166.75 17.4845C167.124 17.7948 167.607 17.95 168.198 17.95C168.852 17.95 169.449 17.8456 169.987 17.6354L170.218 18.6624C169.588 18.936 168.848 19.0728 167.991 19.0728C166.964 19.0728 166.154 18.7696 165.569 18.163C164.981 17.5564 164.689 16.7425 164.689 15.7212C164.689 14.7183 164.961 13.8832 165.508 13.2174C166.08 12.5065 166.852 12.151 167.828 12.151C168.782 12.151 169.507 12.5065 169.997 13.2174C170.392 13.7817 170.588 14.4799 170.588 15.3093ZM169.18 14.9271C169.192 14.4884 169.094 14.1103 168.895 13.7915C168.638 13.381 168.249 13.1751 167.721 13.1751C167.239 13.1751 166.847 13.3754 166.547 13.7774C166.302 14.0976 166.157 14.4799 166.109 14.9271H169.18Z" fill="white"/>
</svg>
