<svg width="28" height="28" viewBox="0 0 28 28" fill="none" xmlns="http://www.w3.org/2000/svg">
<path d="M21.6875 0.165771H6.1875C2.97734 0.165771 0.375 2.76812 0.375 5.97827V21.4783C0.375 24.6884 2.97734 27.2908 6.1875 27.2908H21.6875C24.8977 27.2908 27.5 24.6884 27.5 21.4783V5.97827C27.5 2.76812 24.8977 0.165771 21.6875 0.165771Z" fill="white"/>
<path d="M15.0215 6.24231C15.9287 6.22827 16.8292 6.23557 17.7291 6.22827C17.759 7.36887 18.2157 8.39547 18.9422 9.15587L18.941 9.15475C19.723 9.86853 20.7404 10.3313 21.862 10.4099L21.8775 10.411V13.2392C20.818 13.2123 19.8216 12.9646 18.9233 12.5389L18.9688 12.558C18.5343 12.3463 18.1669 12.129 17.8178 11.8863L17.8466 11.9054C17.8399 13.9547 17.8532 16.004 17.8327 18.0459C17.7757 19.0866 17.4343 20.0357 16.8868 20.8281L16.8979 20.8107C15.9824 22.1394 14.4995 23.0116 12.8132 23.0632H12.8055C12.7373 23.0666 12.657 23.0683 12.576 23.0683C11.6174 23.0683 10.7213 22.7976 9.95767 22.3275L9.97984 22.3404C8.59002 21.493 7.63134 20.043 7.45401 18.3565L7.45179 18.3335C7.43794 17.9825 7.43129 17.6315 7.44514 17.2878C7.71668 14.6039 9.93551 12.5277 12.6326 12.5277C12.9357 12.5277 13.2327 12.5541 13.5214 12.6041L13.4904 12.5996C13.5042 13.638 13.4627 14.6769 13.4627 15.7153C13.2283 15.6294 12.9579 15.5794 12.6758 15.5794C11.6406 15.5794 10.7601 16.2499 10.4342 17.1861L10.4293 17.203C10.3556 17.4428 10.3129 17.7185 10.3129 18.0038C10.3129 18.1195 10.3201 18.2341 10.3334 18.3464L10.3323 18.3329C10.5163 19.4819 11.4882 20.349 12.6603 20.349C12.6941 20.349 12.7273 20.3485 12.7606 20.3468H12.7556C13.5663 20.3221 14.2701 19.8801 14.668 19.227L14.6735 19.2169C14.8215 19.0079 14.9229 18.7552 14.9567 18.4806L14.9572 18.4727C15.0265 17.2164 14.9988 15.9675 15.0055 14.7112C15.0121 11.883 14.9988 9.06152 15.0193 6.24063L15.0215 6.24231Z" fill="#42383F"/>
</svg>
