<svg width="35" height="50" viewBox="0 0 35 50" fill="none" xmlns="http://www.w3.org/2000/svg">
<path d="M0.751465 7.76646C0.751465 8.59661 1.42448 9.26962 2.25462 9.26962L4.25887 7.76646L2.25462 6.26331C1.42448 6.26321 0.751465 6.93623 0.751465 7.76646Z" fill="#ADADAD"/>
<path d="M32.3189 6.26331L30.3147 7.76646L32.3189 9.26962C33.1491 9.26962 33.8221 8.59661 33.8221 7.76646C33.8221 6.93632 33.1491 6.26331 32.3189 6.26331Z" fill="#ADADAD"/>
<path d="M29.3125 0.751587L26.3062 17.7879L32.3189 14.7815V0.751587H29.3125Z" fill="#ADADAD"/>
<path d="M29.3124 0.751587V17.7879L2.25488 14.7815V0.751587H29.3124Z" fill="#BFBFBF"/>
<path d="M21.7962 24.7958L19.9924 32.8198H21.7962C23.4497 32.8198 24.8026 31.467 24.8026 29.8134V27.8022L21.7962 24.7958Z" fill="#999999"/>
<path d="M9.77051 24.7958V29.8134C9.77051 31.4669 11.1234 32.8198 12.7769 32.8198H19.9923C20.9844 32.8198 21.7961 31.467 21.7961 29.8134V24.7958H9.77051Z" fill="#ADADAD"/>
<path d="M29.3124 14.7814L23.2996 27.8022H24.8027C29.2963 25.2036 32.3187 20.3453 32.3187 14.7814H29.3124Z" fill="#999999"/>
<path d="M2.25488 14.7814C2.25488 20.3452 5.2773 25.2026 9.76985 27.8022H23.2996C26.8943 25.2036 29.3125 20.3453 29.3125 14.7814H2.25488Z" fill="#ADADAD"/>
<path d="M25.5547 9.26974C26.3848 9.26974 27.0578 8.59676 27.0578 7.76659C27.0578 6.93642 26.3848 6.26343 25.5547 6.26343C24.7245 6.26343 24.0515 6.93642 24.0515 7.76659C24.0515 8.59676 24.7245 9.26974 25.5547 9.26974Z" fill="#ADADAD"/>
<path d="M17.2873 9.26974C18.1175 9.26974 18.7905 8.59676 18.7905 7.76659C18.7905 6.93642 18.1175 6.26343 17.2873 6.26343C16.4572 6.26343 15.7842 6.93642 15.7842 7.76659C15.7842 8.59676 16.4572 9.26974 17.2873 9.26974Z" fill="#ADADAD"/>
<path d="M9.01927 9.26974C9.84944 9.26974 10.5224 8.59676 10.5224 7.76659C10.5224 6.93642 9.84944 6.26343 9.01927 6.26343C8.1891 6.26343 7.51611 6.93642 7.51611 7.76659C7.51611 8.59676 8.1891 9.26974 9.01927 9.26974Z" fill="#ADADAD"/>
<path d="M25.0433 49.2032H10.0327C10.7454 47.1612 12.6715 45.7933 14.8343 45.7933H20.2418C22.4045 45.7932 24.3307 47.1611 25.0433 49.2032Z" fill="#BFBFBF"/>
<path d="M17.5696 45.7932H14.8343C12.6715 45.7932 10.7454 47.1611 10.0327 49.2032H12.768C13.4805 47.1611 15.4068 45.7932 17.5696 45.7932Z" fill="#ADADAD"/>
<path d="M19.2007 32.166V45.7933H15.875V32.166" fill="#ADADAD"/>
</svg>
