<svg width="28" height="28" viewBox="0 0 28 28" fill="none" xmlns="http://www.w3.org/2000/svg">
<path d="M21.5625 0.165771H6.0625C2.85234 0.165771 0.25 2.76812 0.25 5.97827V21.4783C0.25 24.6884 2.85234 27.2908 6.0625 27.2908H21.5625C24.7727 27.2908 27.375 24.6884 27.375 21.4783V5.97827C27.375 2.76812 24.7727 0.165771 21.5625 0.165771Z" fill="white"/>
<path fill-rule="evenodd" clip-rule="evenodd" d="M11.6443 16.4944L11.6436 10.5023L17.3175 13.5087L11.6443 16.4944ZM24.1025 9.46393C24.1025 9.46393 23.8971 7.99439 23.2678 7.34726C22.4691 6.49753 21.574 6.49352 21.1638 6.4442C18.2251 6.22827 13.8171 6.22827 13.8171 6.22827H13.8079C13.8079 6.22827 9.39986 6.22827 6.46119 6.4442C6.05038 6.49352 5.15591 6.49753 4.3566 7.34726C3.72725 7.99439 3.5225 9.46393 3.5225 9.46393C3.5225 9.46393 3.3125 11.1901 3.3125 12.9155V14.5337C3.3125 16.2598 3.5225 17.9853 3.5225 17.9853C3.5225 17.9853 3.72725 19.4548 4.3566 20.1019C5.15591 20.9517 6.20524 20.925 6.67249 21.0137C8.35249 21.1776 13.8125 21.2283 13.8125 21.2283C13.8125 21.2283 18.2251 21.2216 21.1638 21.0057C21.574 20.9557 22.4691 20.9517 23.2678 20.1019C23.8971 19.4548 24.1025 17.9853 24.1025 17.9853C24.1025 17.9853 24.3125 16.2598 24.3125 14.5337V12.9155C24.3125 11.1901 24.1025 9.46393 24.1025 9.46393Z" fill="#42383F"/>
</svg>
