<svg width="40" height="40" viewBox="0 0 40 40" fill="none" xmlns="http://www.w3.org/2000/svg">
<path fill-rule="evenodd" clip-rule="evenodd" d="M40 0H0V40H40V0ZM5.71429 19C5.71429 14.3496 5.71429 12.0243 6.61931 10.2481C7.41541 8.68569 8.68569 7.41541 10.2481 6.61931C12.0243 5.71429 14.3496 5.71429 19 5.71429H20.1071C24.7576 5.71429 27.0829 5.71429 28.859 6.61931C30.4214 7.41541 31.6917 8.68569 32.4877 10.2481C33.3929 12.0243 33.3929 14.3496 33.3929 19V20.1071C33.3929 24.7576 33.3929 27.0829 32.4877 28.859C31.6917 30.4214 30.4214 31.6917 28.859 32.4877C27.0829 33.3929 24.7576 33.3929 20.1071 33.3929H19C14.3496 33.3929 12.0243 33.3929 10.2481 32.4877C8.68569 31.6917 7.41541 30.4214 6.61931 28.859C5.71429 27.0829 5.71429 24.7576 5.71429 20.1071V19ZM19 8.48214H20.1071C22.4781 8.48214 24.0897 8.4843 25.3354 8.58607C26.549 8.68521 27.1696 8.86493 27.6024 9.0855C28.644 9.61623 29.4909 10.4631 30.0216 11.5046C30.2421 11.9375 30.422 12.5581 30.521 13.7717C30.6229 15.0174 30.625 16.629 30.625 19V20.1071C30.625 22.4781 30.6229 24.0897 30.521 25.3354C30.422 26.549 30.2421 27.1696 30.0216 27.6024C29.4909 28.644 28.644 29.4909 27.6024 30.0216C27.1696 30.2421 26.549 30.422 25.3354 30.521C24.0897 30.6229 22.4781 30.625 20.1071 30.625H19C16.629 30.625 15.0174 30.6229 13.7717 30.521C12.5581 30.422 11.9375 30.2421 11.5046 30.0216C10.4631 29.4909 9.61623 28.644 9.0855 27.6024C8.86493 27.1696 8.68521 26.549 8.58607 25.3354C8.4843 24.0897 8.48214 22.4781 8.48214 20.1071V19C8.48214 16.629 8.4843 15.0174 8.58607 13.7717C8.68521 12.5581 8.86493 11.9375 9.0855 11.5046C9.61623 10.4631 10.4631 9.61623 11.5046 9.0855C11.9375 8.86493 12.5581 8.68521 13.7717 8.58607C15.0174 8.4843 16.629 8.48214 19 8.48214ZM27.1651 14.0179C28.3116 14.0179 29.2411 13.0884 29.2411 11.942C29.2411 10.7955 28.3116 9.86607 27.1651 9.86607C26.0187 9.86607 25.0893 10.7955 25.0893 11.942C25.0893 13.0884 26.0187 14.0179 27.1651 14.0179ZM26.4731 19.5536C26.4731 23.3751 23.3751 26.4731 19.5536 26.4731C15.732 26.4731 12.6339 23.3751 12.6339 19.5536C12.6339 15.732 15.732 12.6339 19.5536 12.6339C23.3751 12.6339 26.4731 15.732 26.4731 19.5536ZM23.7054 19.5536C23.7054 21.8466 21.8466 23.7054 19.5536 23.7054C17.2606 23.7054 15.4017 21.8466 15.4017 19.5536C15.4017 17.2606 17.2606 15.4017 19.5536 15.4017C21.8466 15.4017 23.7054 17.2606 23.7054 19.5536Z" fill="white"/>
</svg>
