<svg width="40" height="40" viewBox="0 0 40 40" fill="none" xmlns="http://www.w3.org/2000/svg">
<path fill-rule="evenodd" clip-rule="evenodd" d="M40 0H0V40H40V0ZM22.3305 8.90336C21.566 8.90452 20.8001 8.90568 20.0307 8.91759L20.0276 8.91519C20.0091 11.4515 20.0098 13.9882 20.0105 16.5274C20.0109 18.0226 20.0114 19.5186 20.0079 21.016C20.0054 21.4859 20.0062 21.9552 20.0071 22.424C20.0095 23.7458 20.0119 25.0648 19.9389 26.3896L19.9381 26.4009C19.8899 26.7931 19.745 27.1541 19.5336 27.4527L19.5257 27.4671C18.9573 28.4001 17.9519 29.0316 16.7937 29.0669H16.8009C16.7533 29.0693 16.7059 29.07 16.6576 29.07C14.9831 29.07 13.5947 27.8313 13.3319 26.1899L13.3334 26.2091C13.3144 26.0487 13.3041 25.885 13.3041 25.7197C13.3041 25.3121 13.3651 24.9183 13.4704 24.5757L13.4774 24.5516C13.943 23.2141 15.2009 22.2563 16.6797 22.2563C17.0827 22.2563 17.469 22.3277 17.8039 22.4504C17.8039 21.8145 17.8148 21.1784 17.8257 20.5423C17.8402 19.6946 17.8547 18.8469 17.8434 17.9994L17.8877 18.0059C17.4753 17.9344 17.051 17.8967 16.618 17.8967C12.765 17.8967 9.59526 20.8627 9.20734 24.6969C9.18756 25.1879 9.19706 25.6893 9.21684 26.1907L9.22001 26.2236C9.47334 28.6329 10.8429 30.7043 12.8283 31.9149L12.7967 31.8964C13.8876 32.568 15.1677 32.9547 16.5371 32.9547C16.6529 32.9547 16.7676 32.9523 16.865 32.9474H16.876C19.285 32.8737 21.4034 31.6277 22.7113 29.7296L22.6954 29.7544C23.4776 28.6224 23.9653 27.2666 24.0467 25.7799C24.0651 23.9473 24.0645 22.1106 24.0638 20.2723C24.0634 19.1849 24.063 18.0969 24.0666 17.0089C24.553 17.3442 25.066 17.6459 25.6697 17.94L25.6047 17.9127C26.888 18.5209 28.3114 18.8747 29.825 18.9131V14.8729L29.8029 14.8713C28.2013 14.759 26.7484 14.0985 25.6314 13.0795C24.5937 11.9933 23.9414 10.5268 23.8987 8.89753C23.3763 8.90177 22.8538 8.90256 22.3305 8.90336Z" fill="white"/>
</svg>
