<svg width="29" height="28" viewBox="0 0 29 28" fill="none" xmlns="http://www.w3.org/2000/svg">
<path fill-rule="evenodd" clip-rule="evenodd" d="M29 0H0V28H29V0ZM12.3311 10.274L12.3318 16.2661L18.005 13.2804L12.3311 10.274ZM23.9553 7.11899C24.5846 7.76612 24.79 9.23566 24.79 9.23566C24.79 9.23566 25 10.9618 25 12.6872V14.3054C25 16.0315 24.79 17.757 24.79 17.757C24.79 17.757 24.5846 19.2265 23.9553 19.8736C23.2357 20.6392 22.4379 20.7183 21.987 20.7631C21.9374 20.768 21.8919 20.7725 21.8513 20.7774C18.9126 20.9933 14.5 21 14.5 21C14.5 21 9.03999 20.9493 7.35999 20.7854C7.28036 20.7703 7.18381 20.7585 7.07448 20.7452C6.54232 20.6804 5.70718 20.5786 5.0441 19.8736C4.41475 19.2265 4.21 17.757 4.21 17.757C4.21 17.757 4 16.0315 4 14.3054V12.6872C4 10.9618 4.21 9.23566 4.21 9.23566C4.21 9.23566 4.41475 7.76612 5.0441 7.11899C5.76523 6.35237 6.56381 6.27413 7.0148 6.22994C7.0637 6.22514 7.10851 6.22075 7.14869 6.21593C10.0874 6 14.4954 6 14.4954 6H14.5046C14.5046 6 18.9126 6 21.8513 6.21593C21.8915 6.22076 21.9363 6.22516 21.9852 6.22996C22.4359 6.27415 23.2348 6.35249 23.9553 7.11899Z" fill="white"/>
</svg>
