<svg width="225" height="67" viewBox="0 0 225 67" fill="none" xmlns="http://www.w3.org/2000/svg">
<path d="M216.995 66.8182H7.88167C3.53667 66.8182 0 63.2635 0 58.9119V7.89457C0 3.54136 3.53667 0 7.88167 0H216.995C221.338 0 225 3.54136 225 7.89457V58.9119C225 63.2635 221.338 66.8182 216.995 66.8182Z" fill="black"/>
<path d="M223.387 58.9136C223.387 62.4483 220.53 65.3114 216.997 65.3114H7.88161C4.34994 65.3114 1.48328 62.4483 1.48328 58.9136V7.89289C1.48328 4.35988 4.34994 1.48669 7.88161 1.48669H216.995C220.53 1.48669 223.385 4.35988 223.385 7.89289L223.387 58.9136Z" fill="black"/>
<path d="M50.2133 33.0483C50.165 27.6644 54.6116 25.0451 54.815 24.9232C52.2966 21.2432 48.3933 20.7404 47.0216 20.7003C43.7433 20.3545 40.5633 22.6664 38.8933 22.6664C37.19 22.6664 34.6183 20.7337 31.8466 20.7905C28.28 20.8456 24.9433 22.9153 23.1133 26.1293C19.3367 32.6825 22.1533 42.3126 25.7717 47.6096C27.5816 50.2039 29.6966 53.1004 32.465 52.9985C35.1733 52.8866 36.185 51.2679 39.4533 51.2679C42.6917 51.2679 43.6416 52.9985 46.465 52.9334C49.3716 52.8866 51.2016 50.3275 52.9483 47.7099C55.04 44.7365 55.88 41.8082 55.9133 41.6578C55.845 41.6344 50.2683 39.5013 50.2133 33.0483Z" fill="white"/>
<path d="M44.8799 17.2157C46.3366 15.3899 47.3333 12.906 47.0566 10.3853C44.9483 10.4788 42.3116 11.8469 40.7933 13.6326C39.4499 15.2062 38.2499 17.7854 38.5599 20.2109C40.9283 20.3879 43.3599 19.0132 44.8799 17.2157Z" fill="white"/>
<path d="M89.4083 52.6259H85.6234L83.55 46.0961H76.3433L74.3683 52.6259H70.6833L77.8233 30.3955H82.2333L89.4083 52.6259ZM82.925 43.3566L81.05 37.5517C80.8517 36.9587 80.48 35.5622 79.9317 33.3639H79.865C79.6467 34.3094 79.295 35.7059 78.8117 37.5517L76.97 43.3566H82.925Z" fill="white"/>
<path d="M107.77 44.414C107.77 47.1402 107.035 49.2951 105.565 50.877C104.248 52.2852 102.613 52.9885 100.662 52.9885C98.5551 52.9885 97.0417 52.2301 96.1201 50.7133H96.0534V59.1575H92.5001V41.8733C92.5001 40.1594 92.4551 38.4004 92.3684 36.5963H95.4934L95.6917 39.1371H95.7584C96.9434 37.2227 98.7417 36.2672 101.155 36.2672C103.042 36.2672 104.617 37.0139 105.877 38.509C107.14 40.0057 107.77 41.9735 107.77 44.414ZM104.15 44.5443C104.15 42.9841 103.8 41.6979 103.097 40.6856C102.328 39.6298 101.297 39.102 100.003 39.102C99.1267 39.102 98.3301 39.396 97.6184 39.9756C96.9051 40.5603 96.4384 41.3237 96.2201 42.2692C96.1101 42.7102 96.0551 43.071 96.0551 43.355V46.0277C96.0551 47.1937 96.4117 48.1776 97.1251 48.981C97.8384 49.7845 98.7651 50.1854 99.9051 50.1854C101.243 50.1854 102.285 49.6676 103.03 48.6353C103.777 47.6012 104.15 46.2382 104.15 44.5443Z" fill="white"/>
<path d="M126.165 44.414C126.165 47.1402 125.43 49.2951 123.958 50.877C122.643 52.2852 121.008 52.9885 119.057 52.9885C116.95 52.9885 115.437 52.2301 114.517 50.7133H114.45V59.1575H110.897V41.8733C110.897 40.1594 110.852 38.4004 110.765 36.5963H113.89L114.088 39.1371H114.155C115.338 37.2227 117.137 36.2672 119.552 36.2672C121.437 36.2672 123.012 37.0139 124.275 38.509C125.533 40.0057 126.165 41.9735 126.165 44.414ZM122.545 44.5443C122.545 42.9841 122.193 41.6979 121.49 40.6856C120.722 39.6298 119.693 39.102 118.398 39.102C117.52 39.102 116.725 39.396 116.012 39.9756C115.298 40.5603 114.833 41.3237 114.615 42.2692C114.507 42.7102 114.45 43.071 114.45 43.355V46.0277C114.45 47.1937 114.807 48.1776 115.517 48.981C116.23 49.7829 117.157 50.1854 118.3 50.1854C119.638 50.1854 120.68 49.6676 121.425 48.6353C122.172 47.6012 122.545 46.2382 122.545 44.5443Z" fill="white"/>
<path d="M146.732 46.3918C146.732 48.2828 146.077 49.8213 144.762 51.009C143.317 52.3069 141.305 52.9551 138.72 52.9551C136.333 52.9551 134.42 52.494 132.972 51.5702L133.795 48.6018C135.355 49.5473 137.067 50.0217 138.932 50.0217C140.27 50.0217 141.312 49.7177 142.06 49.113C142.805 48.5083 143.177 47.6965 143.177 46.6842C143.177 45.7821 142.87 45.0221 142.255 44.4057C141.643 43.7893 140.622 43.2163 139.195 42.6868C135.312 41.2351 133.372 39.1087 133.372 36.3123C133.372 34.4848 134.052 32.9864 135.413 31.8205C136.77 30.6528 138.58 30.0698 140.843 30.0698C142.862 30.0698 144.538 30.4223 145.877 31.1256L144.988 34.0288C143.738 33.3473 142.325 33.0065 140.743 33.0065C139.493 33.0065 138.517 33.3155 137.817 33.9302C137.225 34.4798 136.928 35.1497 136.928 35.9431C136.928 36.8218 137.267 37.5484 137.947 38.1197C138.538 38.6476 139.613 39.2189 141.173 39.8353C143.082 40.6054 144.483 41.5058 145.385 42.5381C146.283 43.5671 146.732 44.855 146.732 46.3918Z" fill="white"/>
<path d="M158.48 39.2691H154.563V47.0517C154.563 49.0312 155.253 50.0201 156.637 50.0201C157.272 50.0201 157.798 49.965 158.215 49.8547L158.313 52.5592C157.613 52.8215 156.692 52.9534 155.55 52.9534C154.147 52.9534 153.05 52.5241 152.258 51.6672C151.47 50.8086 151.073 49.3686 151.073 47.3457V39.2657H148.74V36.593H151.073V33.658L154.563 32.6023V36.593H158.48V39.2691Z" fill="white"/>
<path d="M176.152 44.4792C176.152 46.9431 175.448 48.966 174.045 50.548C172.573 52.1767 170.62 52.9885 168.185 52.9885C165.838 52.9885 163.97 52.2084 162.577 50.6482C161.183 49.088 160.487 47.1185 160.487 44.7448C160.487 42.2608 161.203 40.2262 162.642 38.6443C164.077 37.0607 166.013 36.2689 168.448 36.2689C170.795 36.2689 172.683 37.049 174.108 38.6109C175.472 40.126 176.152 42.0821 176.152 44.4792ZM172.465 44.5945C172.465 43.1161 172.15 41.8482 171.512 40.7908C170.767 39.5113 169.702 38.8732 168.322 38.8732C166.893 38.8732 165.808 39.5129 165.063 40.7908C164.425 41.8499 164.11 43.1378 164.11 44.6613C164.11 46.1396 164.425 47.4075 165.063 48.4632C165.832 49.7428 166.905 50.3809 168.29 50.3809C169.647 50.3809 170.712 49.7294 171.48 48.4298C172.135 47.3524 172.465 46.0711 172.465 44.5945Z" fill="white"/>
<path d="M187.702 39.7284C187.35 39.6632 186.975 39.6298 186.582 39.6298C185.332 39.6298 184.365 40.1026 183.685 41.0497C183.093 41.8849 182.797 42.9407 182.797 44.2152V52.626H179.245L179.278 41.6444C179.278 39.7969 179.233 38.1147 179.145 36.598H182.24L182.37 39.6649H182.468C182.843 38.6109 183.435 37.7623 184.245 37.1258C185.037 36.5529 185.892 36.2672 186.813 36.2672C187.142 36.2672 187.438 36.2906 187.702 36.3324V39.7284Z" fill="white"/>
<path d="M203.593 43.8528C203.593 44.4909 203.552 45.0288 203.463 45.4681H192.803C192.845 47.0517 193.36 48.2628 194.35 49.098C195.248 49.8447 196.41 50.2189 197.837 50.2189C199.415 50.2189 200.855 49.9666 202.15 49.4605L202.707 51.9328C201.193 52.5943 199.407 52.9234 197.345 52.9234C194.865 52.9234 192.918 52.1917 191.502 50.73C190.088 49.2684 189.38 47.3056 189.38 44.8434C189.38 42.4262 190.038 40.4133 191.357 38.808C192.737 37.0941 194.602 36.2372 196.948 36.2372C199.253 36.2372 200.998 37.0941 202.183 38.808C203.122 40.1694 203.593 41.8533 203.593 43.8528ZM200.205 42.929C200.228 41.8733 199.997 40.9612 199.515 40.1911C198.9 39.2006 197.955 38.7061 196.683 38.7061C195.522 38.7061 194.577 39.1889 193.855 40.1577C193.263 40.9278 192.912 41.8516 192.803 42.9274L200.205 42.929Z" fill="white"/>
<path d="M81.75 16.7196C81.75 18.6857 81.1617 20.1657 79.9867 21.1596C78.8983 22.0767 77.3517 22.5361 75.3483 22.5361C74.355 22.5361 73.505 22.4927 72.7933 22.4058V11.6631C73.7217 11.5128 74.7217 11.4359 75.8017 11.4359C77.71 11.4359 79.1483 11.8519 80.1183 12.6837C81.205 13.6242 81.75 14.9689 81.75 16.7196ZM79.9083 16.768C79.9083 15.4934 79.5717 14.5162 78.8983 13.8347C78.225 13.1548 77.2417 12.814 75.9467 12.814C75.3967 12.814 74.9283 12.8508 74.54 12.9276V21.0945C74.755 21.1279 75.1483 21.1429 75.72 21.1429C77.0567 21.1429 78.0883 20.7704 78.815 20.0254C79.5417 19.2804 79.9083 18.1946 79.9083 16.768Z" fill="white"/>
<path d="M91.5151 18.4369C91.5151 19.648 91.1701 20.6402 90.4801 21.4187C89.7567 22.2188 88.7984 22.618 87.6017 22.618C86.4484 22.618 85.5301 22.2355 84.8451 21.4671C84.1617 20.7004 83.8201 19.7332 83.8201 18.5672C83.8201 17.3478 84.1717 16.3472 84.8784 15.5704C85.5851 14.7936 86.5351 14.4044 87.7317 14.4044C88.8851 14.4044 89.8117 14.787 90.5134 15.5537C91.1801 16.2987 91.5151 17.2609 91.5151 18.4369ZM89.7034 18.4937C89.7034 17.767 89.5467 17.144 89.2351 16.6245C88.8684 15.9964 88.3467 15.6823 87.6684 15.6823C86.9667 15.6823 86.4334 15.9964 86.0667 16.6245C85.7534 17.144 85.5984 17.7771 85.5984 18.5254C85.5984 19.2521 85.7551 19.8752 86.0667 20.3947C86.4451 21.0228 86.9717 21.3368 87.6517 21.3368C88.3184 21.3368 88.8417 21.0177 89.2184 20.378C89.5417 19.8484 89.7034 19.2203 89.7034 18.4937Z" fill="white"/>
<path d="M104.608 14.5647L102.15 22.4392H100.55L99.5316 19.0198C99.2733 18.1662 99.0633 17.3176 98.9 16.4757H98.8683C98.7166 17.341 98.5066 18.1879 98.2366 19.0198L97.155 22.4392H95.5366L93.225 14.5647H95.02L95.9083 18.3082C96.1233 19.1935 96.3 20.0371 96.4416 20.8356H96.4733C96.6033 20.1774 96.8183 19.3389 97.1216 18.3249L98.2366 14.5664H99.66L100.728 18.2447C100.987 19.1417 101.197 20.0054 101.358 20.8373H101.407C101.525 20.0271 101.703 19.1635 101.94 18.2447L102.893 14.5664H104.608V14.5647Z" fill="white"/>
<path d="M113.663 22.4393H111.917V17.9291C111.917 16.5393 111.39 15.8444 110.333 15.8444C109.815 15.8444 109.397 16.0348 109.072 16.4173C108.75 16.7999 108.587 17.2509 108.587 17.7671V22.4376H106.84V16.8149C106.84 16.1233 106.818 15.3733 106.777 14.5614H108.312L108.393 15.7926H108.442C108.645 15.41 108.948 15.0943 109.347 14.8421C109.82 14.5481 110.35 14.3994 110.93 14.3994C111.663 14.3994 112.273 14.6366 112.758 15.1127C113.362 15.6957 113.663 16.566 113.663 17.7219V22.4393Z" fill="white"/>
<path d="M118.48 22.4393H116.735V10.9515H118.48V22.4393Z" fill="white"/>
<path d="M128.763 18.4369C128.763 19.648 128.418 20.6402 127.728 21.4187C127.005 22.2188 126.045 22.618 124.85 22.618C123.695 22.618 122.777 22.2355 122.093 21.4671C121.41 20.7004 121.068 19.7332 121.068 18.5672C121.068 17.3478 121.42 16.3472 122.127 15.5704C122.833 14.7936 123.783 14.4044 124.978 14.4044C126.133 14.4044 127.058 14.787 127.762 15.5537C128.428 16.2987 128.763 17.2609 128.763 18.4369ZM126.95 18.4937C126.95 17.767 126.793 17.144 126.482 16.6245C126.117 15.9964 125.593 15.6823 124.917 15.6823C124.213 15.6823 123.68 15.9964 123.315 16.6245C123.002 17.144 122.847 17.7771 122.847 18.5254C122.847 19.2521 123.003 19.8752 123.315 20.3947C123.693 21.0228 124.22 21.3368 124.9 21.3368C125.567 21.3368 126.088 21.0177 126.465 20.378C126.79 19.8484 126.95 19.2203 126.95 18.4937Z" fill="white"/>
<path d="M137.217 22.4393H135.648L135.518 21.5322H135.47C134.933 22.2556 134.168 22.618 133.175 22.618C132.433 22.618 131.833 22.3792 131.382 21.9048C130.972 21.4738 130.767 20.9376 130.767 20.3011C130.767 19.3389 131.167 18.6056 131.972 18.0978C132.775 17.59 133.905 17.3411 135.36 17.3528V17.2058C135.36 16.1684 134.817 15.6506 133.728 15.6506C132.953 15.6506 132.27 15.846 131.68 16.2336L131.325 15.0843C132.055 14.6316 132.957 14.4044 134.02 14.4044C136.073 14.4044 137.103 15.4902 137.103 17.6618V20.5617C137.103 21.3485 137.142 21.9749 137.217 22.4393ZM135.403 19.7332V18.5187C133.477 18.4853 132.513 19.0149 132.513 20.1057C132.513 20.5166 132.623 20.824 132.848 21.0294C133.073 21.2349 133.36 21.3368 133.702 21.3368C134.085 21.3368 134.443 21.2149 134.77 20.9726C135.098 20.7288 135.3 20.4197 135.375 20.0405C135.393 19.9553 135.403 19.8518 135.403 19.7332Z" fill="white"/>
<path d="M147.142 22.4393H145.592L145.51 21.1747H145.462C144.967 22.1369 144.123 22.618 142.938 22.618C141.992 22.618 141.203 22.2455 140.578 21.5005C139.953 20.7554 139.642 19.7882 139.642 18.6005C139.642 17.326 139.98 16.2937 140.66 15.5052C141.318 14.7702 142.125 14.4027 143.085 14.4027C144.14 14.4027 144.878 14.7585 145.298 15.4718H145.332V10.9515H147.08V20.3178C147.08 21.0845 147.1 21.7911 147.142 22.4393ZM145.332 19.1184V17.8054C145.332 17.5782 145.315 17.3945 145.283 17.2542C145.185 16.8332 144.973 16.4791 144.652 16.1934C144.327 15.9078 143.935 15.7641 143.483 15.7641C142.832 15.7641 142.322 16.023 141.947 16.5425C141.575 17.0621 141.387 17.7252 141.387 18.5354C141.387 19.3138 141.565 19.9453 141.923 20.4314C142.302 20.9492 142.812 21.2081 143.45 21.2081C144.023 21.2081 144.482 20.9926 144.83 20.56C145.167 20.1608 145.332 19.6797 145.332 19.1184Z" fill="white"/>
<path d="M162.08 18.4369C162.08 19.648 161.735 20.6402 161.045 21.4187C160.322 22.2188 159.365 22.618 158.167 22.618C157.015 22.618 156.097 22.2355 155.41 21.4671C154.727 20.7004 154.385 19.7332 154.385 18.5672C154.385 17.3478 154.737 16.3472 155.443 15.5704C156.15 14.7936 157.1 14.4044 158.298 14.4044C159.45 14.4044 160.378 14.787 161.078 15.5537C161.745 16.2987 162.08 17.2609 162.08 18.4369ZM160.27 18.4937C160.27 17.767 160.113 17.144 159.802 16.6245C159.433 15.9964 158.913 15.6823 158.233 15.6823C157.533 15.6823 157 15.9964 156.632 16.6245C156.318 17.144 156.163 17.7771 156.163 18.5254C156.163 19.2521 156.32 19.8752 156.632 20.3947C157.01 21.0228 157.537 21.3368 158.217 21.3368C158.883 21.3368 159.408 21.0177 159.785 20.378C160.107 19.8484 160.27 19.2203 160.27 18.4937Z" fill="white"/>
<path d="M171.472 22.4393H169.727V17.9291C169.727 16.5393 169.2 15.8444 168.142 15.8444C167.623 15.8444 167.205 16.0348 166.882 16.4173C166.558 16.7999 166.397 17.2509 166.397 17.7671V22.4376H164.648V16.8149C164.648 16.1233 164.628 15.3733 164.587 14.5614H166.12L166.202 15.7926H166.25C166.455 15.41 166.758 15.0943 167.155 14.8421C167.63 14.5481 168.158 14.3994 168.74 14.3994C169.472 14.3994 170.082 14.6366 170.567 15.1127C171.172 15.6957 171.472 16.566 171.472 17.7219V22.4393Z" fill="white"/>
<path d="M183.227 15.8761H181.303V19.7014C181.303 20.6736 181.645 21.1597 182.322 21.1597C182.635 21.1597 182.895 21.133 183.1 21.0779L183.145 22.4059C182.8 22.5362 182.347 22.6013 181.788 22.6013C181.098 22.6013 180.562 22.3908 180.173 21.9699C179.783 21.5489 179.59 20.8406 179.59 19.8467V15.8761H178.442V14.5648H179.59V13.1215L181.302 12.6036V14.5631H183.225L183.227 15.8761Z" fill="white"/>
<path d="M192.473 22.4393H190.725V17.9624C190.725 16.5509 190.198 15.8443 189.143 15.8443C188.333 15.8443 187.78 16.2536 187.477 17.0721C187.425 17.2441 187.395 17.4546 187.395 17.7018V22.4376H185.65V10.9515H187.395V15.6973H187.428C187.978 14.8337 188.767 14.4027 189.788 14.4027C190.512 14.4027 191.11 14.6399 191.585 15.116C192.177 15.709 192.473 16.591 192.473 17.757V22.4393Z" fill="white"/>
<path d="M202.012 18.1294C202.012 18.4435 201.988 18.7074 201.947 18.9229H196.708C196.732 19.7013 196.982 20.2943 197.467 20.7053C197.91 21.0728 198.482 21.2565 199.182 21.2565C199.957 21.2565 200.663 21.1329 201.3 20.884L201.573 22.1001C200.828 22.4242 199.952 22.5862 198.937 22.5862C197.72 22.5862 196.762 22.2271 196.068 21.5088C195.372 20.7905 195.027 19.8266 195.027 18.6172C195.027 17.4295 195.348 16.4406 195.997 15.6521C196.673 14.8102 197.588 14.3893 198.743 14.3893C199.873 14.3893 200.732 14.8102 201.312 15.6521C201.78 16.3203 202.012 17.1472 202.012 18.1294ZM200.345 17.6767C200.358 17.1572 200.243 16.7095 200.007 16.332C199.703 15.8459 199.242 15.602 198.617 15.602C198.047 15.602 197.582 15.8392 197.227 16.3153C196.937 16.6945 196.765 17.1472 196.708 17.6767H200.345Z" fill="white"/>
</svg>
