<svg width="225" height="68" viewBox="0 0 225 68" fill="none" xmlns="http://www.w3.org/2000/svg">
<g clip-path="url(#clip0_215_184)">
<path d="M216.663 67.3777H8.33752C3.75427 67.3777 0.00439453 63.6338 0.00439453 59.0579V9.13924C0.00439453 4.56333 3.75427 0.819458 8.33752 0.819458H216.663C221.246 0.819458 224.996 4.56333 224.996 9.13924V59.0579C224.996 63.6338 221.246 67.3777 216.663 67.3777Z" fill="#100F0D"/>
<path d="M178.225 50.7381H181.335V29.9352H178.225V50.7381ZM206.236 37.4295L202.671 46.448H202.565L198.865 37.4295H195.515L201.065 50.0342L197.9 57.0461H201.143L209.695 37.4301L206.236 37.4295ZM188.599 48.3752C187.582 48.3752 186.161 47.8661 186.161 46.6085C186.161 45.0029 187.931 44.3874 189.457 44.3874C190.824 44.3874 191.469 44.6813 192.299 45.083C192.057 47.0101 190.395 48.3752 188.599 48.3752ZM188.975 36.9744C186.724 36.9744 184.392 37.965 183.427 40.1595L186.187 41.3099C186.777 40.1595 187.875 39.7851 189.029 39.7851C190.637 39.7851 192.272 40.7477 192.299 42.4611V42.6749C191.735 42.3537 190.529 41.8722 189.055 41.8722C186.079 41.8722 183.051 43.5042 183.051 46.5552C183.051 49.3385 185.491 51.1317 188.224 51.1317C190.314 51.1317 191.469 50.1951 192.19 49.0974H192.299V50.704H195.302V42.7281C195.302 39.0349 192.539 36.9744 188.975 36.9744ZM169.755 39.9618H165.332V32.8316H169.755C172.08 32.8316 173.4 34.753 173.4 36.3966C173.4 38.0087 172.08 39.9618 169.755 39.9618ZM169.675 29.9357H162.224V50.7386H165.332V42.8576H169.676C173.122 42.8576 176.51 40.3669 176.51 36.3974C176.51 32.4286 173.122 29.9357 169.675 29.9357ZM129.042 48.3787C126.893 48.3787 125.095 46.582 125.095 44.1167C125.095 41.6227 126.893 39.8008 129.042 39.8008C131.163 39.8008 132.827 41.6229 132.827 44.1167C132.827 46.582 131.163 48.3787 129.042 48.3787ZM132.613 38.594H132.505C131.807 37.7632 130.464 37.0125 128.773 37.0125C125.229 37.0125 121.98 40.1226 121.98 44.1167C121.98 48.0836 125.229 51.1664 128.773 51.1664C130.464 51.1664 131.807 50.4156 132.505 49.5584H132.613V50.5762C132.613 53.2848 131.163 54.7316 128.827 54.7316C126.921 54.7316 125.74 53.3646 125.256 52.2121L122.545 53.3379C123.323 55.2136 125.389 57.5199 128.827 57.5199C132.479 57.5199 135.567 55.3749 135.567 50.1471V37.4412H132.613L132.613 38.594ZM137.715 50.7375H140.829V29.9346H137.715V50.7375ZM145.42 43.875C145.34 41.1405 147.543 39.7469 149.126 39.7469C150.362 39.7469 151.408 40.3637 151.758 41.2477L145.42 43.875ZM155.086 41.5155C154.496 39.9348 152.697 37.0125 149.018 37.0125C145.366 37.0125 142.332 39.8808 142.332 44.0895C142.332 48.057 145.34 51.1666 149.367 51.1666C152.615 51.1666 154.496 49.1835 155.275 48.0303L152.858 46.4217C152.052 47.6014 150.952 48.3788 149.367 48.3788C147.784 48.3788 146.655 47.6548 145.931 46.234L155.408 42.3204L155.086 41.5155ZM79.5748 39.184V42.1863H86.7704C86.5556 43.8751 85.9918 45.108 85.1324 45.966C84.0849 47.0112 82.447 48.1642 79.5747 48.1642C75.1443 48.1642 71.6809 44.5991 71.6809 40.1759C71.6809 35.7528 75.1443 32.1871 79.5747 32.1871C81.9644 32.1871 83.7093 33.1256 84.9982 34.3319L87.1199 32.2137C85.3204 30.4983 82.9312 29.1848 79.5747 29.1848C73.5057 29.1848 68.4043 34.1174 68.4043 40.1759C68.4043 46.2338 73.5057 51.1666 79.5747 51.1666C82.8499 51.1666 85.3205 50.0941 87.2534 48.0837C89.2404 46.0999 89.8582 43.3122 89.8582 41.06C89.8582 40.3638 89.804 39.7204 89.6967 39.184H79.5748ZM98.0398 48.3787C95.8913 48.3787 94.0385 46.6094 94.0385 44.0895C94.0385 41.5429 95.8913 39.8009 98.0398 39.8009C100.187 39.8009 102.04 41.5429 102.04 44.0895C102.04 46.6094 100.187 48.3787 98.0398 48.3787ZM98.0398 37.0125C94.1185 37.0125 90.9239 39.988 90.9239 44.0895C90.9239 48.1642 94.1185 51.1666 98.0398 51.1666C101.96 51.1666 105.155 48.1642 105.155 44.0895C105.155 39.988 101.96 37.0125 98.0398 37.0125ZM113.561 48.3787C111.414 48.3787 109.561 46.6094 109.561 44.0895C109.561 41.5429 111.414 39.8009 113.561 39.8009C115.71 39.8009 117.562 41.5429 117.562 44.0895C117.562 46.6094 115.71 48.3787 113.561 48.3787ZM113.561 37.0125C109.641 37.0125 106.447 39.988 106.447 44.0895C106.447 48.1642 109.641 51.1666 113.561 51.1666C117.482 51.1666 120.677 48.1642 120.677 44.0895C120.677 39.988 117.482 37.0125 113.561 37.0125Z" fill="white"/>
<path d="M34.5275 33.1401L16.785 51.9425C16.7857 51.9463 16.787 51.9496 16.7877 51.9536C17.3318 53.9953 19.1997 55.4986 21.4164 55.4986C22.3026 55.4986 23.1345 55.2594 23.848 54.8395L23.9047 54.8064L43.8772 43.2998L34.5275 33.1401Z" fill="#EB3131"/>
<path d="M52.4788 29.939L52.4618 29.9274L43.839 24.9366L34.1244 33.5673L43.8728 43.2988L52.45 38.3577C53.9538 37.5472 54.9746 35.9645 54.9746 34.1393C54.9746 32.3272 53.9676 30.7522 52.4788 29.939Z" fill="#F6B60B"/>
<path d="M16.7825 16.256C16.6758 16.6487 16.6198 17.06 16.6198 17.4871V50.7126C16.6198 51.1389 16.6752 51.5517 16.7832 51.943L35.1382 33.6211L16.7825 16.256Z" fill="#5778C5"/>
<path d="M34.6587 34.0998L43.8429 24.9332L23.8929 13.3849C23.1677 12.9513 22.3214 12.701 21.4157 12.701C19.199 12.701 17.3286 14.2071 16.7844 16.2512C16.7837 16.2532 16.7837 16.2546 16.7837 16.2563L34.6587 34.0998Z" fill="#3BAD49"/>
<path d="M78.9912 17.0947H74.1293V18.2959H77.7726C77.6736 19.2761 77.2829 20.0457 76.6241 20.6047C75.9653 21.1638 75.1241 21.4445 74.1293 21.4445C73.0382 21.4445 72.1137 21.0649 71.3561 20.311C70.6138 19.5414 70.2363 18.5897 70.2363 17.4432C70.2363 16.2967 70.6138 15.3451 71.3561 14.5756C72.1137 13.8216 73.0382 13.4446 74.1293 13.4446C74.6893 13.4446 75.2231 13.5408 75.7126 13.7514C76.2022 13.9619 76.5954 14.2557 76.9027 14.6328L77.8272 13.7098C77.4079 13.2339 76.8767 12.87 76.2177 12.6048C75.5589 12.3395 74.8715 12.2122 74.1292 12.2122C72.6736 12.2122 71.4393 12.7166 70.4315 13.7228C69.4236 14.7315 68.9185 15.9743 68.9185 17.4432C68.9185 18.9121 69.4236 20.1576 70.4315 21.1639C71.4393 22.1699 72.6736 22.6745 74.1292 22.6745C75.6578 22.6745 76.8766 22.1856 77.8141 21.1923C78.6396 20.3657 79.0614 19.2477 79.0614 17.849C79.0614 17.6123 79.0329 17.3599 78.9912 17.0947ZM80.8747 12.4356V22.4507H86.7312V21.2209H82.1637V18.0438H86.2834V16.8426H82.1637V13.6681H86.7312V12.4356L80.8747 12.4356ZM94.9434 13.6681V12.4356H88.0503V13.6681H90.8524V22.4507H92.1414V13.6681H94.9434ZM101.184 12.4356H99.8951V22.4507H101.184V12.4356ZM109.692 13.6681V12.4356H102.799V13.6681H105.601V22.4507H106.89V13.6681H109.692ZM122.7 13.7383C121.705 12.7165 120.486 12.2122 119.031 12.2122C117.572 12.2122 116.354 12.7165 115.359 13.7227C114.364 14.716 113.875 15.9613 113.875 17.4431C113.875 18.925 114.364 20.1705 115.359 21.1638C116.354 22.1698 117.572 22.6744 119.031 22.6744C120.473 22.6744 121.705 22.1699 122.7 21.1638C123.695 20.1706 124.184 18.9251 124.184 17.4431C124.184 15.9742 123.695 14.7314 122.7 13.7383ZM116.283 14.5755C117.025 13.8215 117.937 13.4445 119.031 13.4445C120.122 13.4445 121.033 13.8215 121.762 14.5755C122.504 15.3164 122.869 16.2835 122.869 17.4431C122.869 18.6054 122.504 19.5698 121.762 20.3109C121.033 21.0648 120.122 21.4444 119.031 21.4444C117.937 21.4444 117.025 21.0648 116.283 20.3109C115.557 19.5543 115.192 18.6054 115.192 17.4431C115.192 16.2835 115.557 15.332 116.283 14.5755ZM127.247 16.2135L127.192 14.2816H127.247L132.345 22.4506H133.692V12.4355H132.403V18.2958L132.457 20.2277H132.403L127.528 12.4355H125.958V22.4506H127.247V16.2135Z" fill="white" stroke="white" stroke-width="0.26666" stroke-miterlimit="10"/>
</g>
<defs>
<clipPath id="clip0_215_184">
<rect width="225" height="66.5595" fill="white" transform="translate(0 0.818237)"/>
</clipPath>
</defs>
</svg>
