<svg width="190" height="57" viewBox="0 0 190 57" fill="none" xmlns="http://www.w3.org/2000/svg">
<g clip-path="url(#clip0_215_184)">
<path d="M182.959 56.6299H7.0404C3.1701 56.6299 0.00354004 53.4684 0.00354004 49.6043V7.45076C0.00354004 3.58666 3.1701 0.425171 7.0404 0.425171H182.959C186.83 0.425171 189.996 3.58666 189.996 7.45076V49.6043C189.996 53.4684 186.83 56.6299 182.959 56.6299Z" fill="#100F0D"/>
<path d="M150.501 42.5787H153.127V25.0119H150.501V42.5787ZM174.155 31.3403L171.145 38.956H171.055L167.93 31.3403H165.102L169.788 41.9844L167.116 47.9055H169.854L177.076 31.3408L174.155 31.3403ZM159.261 40.5834C158.403 40.5834 157.202 40.1535 157.202 39.0915C157.202 37.7357 158.697 37.2159 159.986 37.2159C161.14 37.2159 161.685 37.4641 162.386 37.8033C162.182 39.4307 160.778 40.5834 159.261 40.5834ZM159.579 30.9561C157.678 30.9561 155.709 31.7925 154.894 33.6457L157.225 34.6171C157.723 33.6457 158.65 33.3295 159.624 33.3295C160.982 33.3295 162.363 34.1424 162.386 35.5892V35.7698C161.91 35.4986 160.891 35.092 159.647 35.092C157.133 35.092 154.576 36.4701 154.576 39.0465C154.576 41.3968 156.636 42.9111 158.945 42.9111C160.709 42.9111 161.685 42.1202 162.294 41.1932H162.386V42.55H164.922V35.8147C164.922 32.696 162.588 30.9561 159.579 30.9561ZM143.349 33.4787H139.614V27.4577H143.349C145.312 27.4577 146.427 29.0802 146.427 30.4681C146.427 31.8294 145.312 33.4787 143.349 33.4787ZM143.281 25.0123H136.989V42.5792H139.614V35.9241H143.282C146.192 35.9241 149.053 33.8208 149.053 30.4688C149.053 27.1174 146.192 25.0123 143.281 25.0123ZM108.969 40.5863C107.154 40.5863 105.636 39.0692 105.636 36.9874C105.636 34.8813 107.154 33.3428 108.969 33.3428C110.76 33.3428 112.165 34.8814 112.165 36.9874C112.165 39.0692 110.76 40.5863 108.969 40.5863ZM111.984 32.3237H111.893C111.304 31.6221 110.17 30.9882 108.742 30.9882C105.749 30.9882 103.005 33.6146 103.005 36.9874C103.005 40.3372 105.749 42.9404 108.742 42.9404C110.17 42.9404 111.304 42.3064 111.893 41.5825H111.984V42.442C111.984 44.7292 110.76 45.951 108.787 45.951C107.178 45.951 106.18 44.7967 105.772 43.8234L103.482 44.7741C104.139 46.358 105.884 48.3056 108.787 48.3056C111.871 48.3056 114.479 46.4942 114.479 42.0797V31.3503H111.984L111.984 32.3237ZM116.293 42.5782H118.922V25.0113H116.293V42.5782ZM122.799 36.7832C122.732 34.4741 124.592 33.2972 125.929 33.2972C126.972 33.2972 127.855 33.8181 128.151 34.5646L122.799 36.7832ZM130.962 34.7908C130.463 33.456 128.944 30.9882 125.838 30.9882C122.754 30.9882 120.192 33.4103 120.192 36.9644C120.192 40.3147 122.732 42.9405 126.132 42.9405C128.875 42.9405 130.463 41.2659 131.121 40.2922L129.08 38.9337C128.4 39.93 127.471 40.5864 126.132 40.5864C124.795 40.5864 123.842 39.975 123.231 38.7752L131.234 35.4704L130.962 34.7908ZM67.1965 32.822V35.3572H73.2728C73.0914 36.7833 72.6153 37.8244 71.8896 38.549C71.0051 39.4315 69.622 40.4052 67.1964 40.4052C63.4552 40.4052 60.5306 37.3947 60.5306 33.6596C60.5306 29.9245 63.4552 26.9135 67.1964 26.9135C69.2144 26.9135 70.6879 27.7059 71.7763 28.7246L73.568 26.9359C72.0484 25.4874 70.0308 24.3782 67.1964 24.3782C62.0715 24.3782 57.7637 28.5435 57.7637 33.6596C57.7637 38.7751 62.0715 42.9405 67.1964 42.9405C69.9622 42.9405 72.0485 42.0349 73.6807 40.3373C75.3586 38.6621 75.8803 36.3079 75.8803 34.4061C75.8803 33.8182 75.8345 33.2749 75.7439 32.822H67.1965ZM82.7892 40.5863C80.9749 40.5863 79.4104 39.0922 79.4104 36.9644C79.4104 34.8139 80.9749 33.3429 82.7892 33.3429C84.6028 33.3429 86.1673 34.8139 86.1673 36.9644C86.1673 39.0922 84.6028 40.5863 82.7892 40.5863ZM82.7892 30.9882C79.4779 30.9882 76.7802 33.5009 76.7802 36.9644C76.7802 40.4052 79.4779 42.9405 82.7892 42.9405C86.0992 42.9405 88.7974 40.4052 88.7974 36.9644C88.7974 33.5009 86.0992 30.9882 82.7892 30.9882ZM95.896 40.5863C94.083 40.5863 92.5179 39.0922 92.5179 36.9644C92.5179 34.8139 94.0831 33.3429 95.896 33.3429C97.7103 33.3429 99.2743 34.8139 99.2743 36.9644C99.2743 39.0922 97.7103 40.5863 95.896 40.5863ZM95.896 30.9882C92.586 30.9882 89.8883 33.5009 89.8883 36.9644C89.8883 40.4052 92.586 42.9405 95.896 42.9405C99.2073 42.9405 101.905 40.4052 101.905 36.9644C101.905 33.5009 99.2073 30.9882 95.896 30.9882Z" fill="white"/>
<path d="M29.1565 27.7182L14.174 43.5957C14.1745 43.599 14.1756 43.6017 14.1762 43.6051C14.6357 45.3292 16.213 46.5987 18.0849 46.5987C18.8332 46.5987 19.5357 46.3967 20.1383 46.0422L20.1861 46.0142L37.0518 36.2975L29.1565 27.7182Z" fill="#EB3131"/>
<path d="M44.3154 25.0151L44.3011 25.0053L37.0196 20.7909L28.8162 28.079L37.0481 36.2967L44.2911 32.1243C45.561 31.4398 46.423 30.1033 46.423 28.562C46.423 27.0318 45.5727 25.7018 44.3154 25.0151Z" fill="#F6B60B"/>
<path d="M14.1718 13.4604C14.0818 13.7921 14.0344 14.1394 14.0344 14.5001V42.5572C14.0344 42.9172 14.0812 43.2657 14.1724 43.5961L29.6722 28.1243L14.1718 13.4604Z" fill="#5778C5"/>
<path d="M29.2673 28.5287L37.0228 20.788L20.1761 11.0361C19.5638 10.6699 18.8491 10.4586 18.0844 10.4586C16.2124 10.4586 14.633 11.7304 14.1734 13.4565C14.1729 13.4582 14.1729 13.4594 14.1729 13.4609L29.2673 28.5287Z" fill="#3BAD49"/>
<path d="M66.7037 14.1686H62.5982V15.183H65.6747C65.5911 16.0108 65.2612 16.6606 64.7049 17.1327C64.1485 17.6048 63.4382 17.8418 62.5982 17.8418C61.6768 17.8418 60.8961 17.5213 60.2563 16.8847C59.6295 16.2348 59.3107 15.4312 59.3107 14.463C59.3107 13.4949 59.6295 12.6912 60.2563 12.0414C60.8961 11.4048 61.6768 11.0864 62.5982 11.0864C63.0711 11.0864 63.5218 11.1676 63.9351 11.3455C64.3486 11.5232 64.6806 11.7713 64.9401 12.0898L65.7208 11.3103C65.3667 10.9085 64.9182 10.6012 64.3617 10.3772C63.8054 10.1532 63.2249 10.0457 62.5981 10.0457C61.3689 10.0457 60.3266 10.4716 59.4755 11.3213C58.6245 12.1731 58.1979 13.2226 58.1979 14.463C58.1979 15.7034 58.6244 16.7552 59.4755 17.6049C60.3266 18.4544 61.3689 18.8805 62.5981 18.8805C63.8889 18.8805 64.9181 18.4677 65.7097 17.6289C66.4068 16.9309 66.763 15.9868 66.763 14.8056C66.763 14.6058 66.7389 14.3926 66.7037 14.1686ZM68.2943 10.2344V18.6915H73.2397V17.653H69.3827V14.9702H72.8616V13.9558H69.3827V11.2751H73.2397V10.2343L68.2943 10.2344ZM80.1745 11.2751V10.2344H74.3537V11.2751H76.7199V18.6915H77.8084V11.2751H80.1745ZM85.4444 10.2344H84.3559V18.6915H85.4444V10.2344ZM92.6291 11.2751V10.2344H86.8084V11.2751H89.1744V18.6915H90.2629V11.2751H92.6291ZM103.613 11.3344C102.773 10.4716 101.744 10.0457 100.515 10.0457C99.2834 10.0457 98.2543 10.4715 97.4142 11.3213C96.5741 12.16 96.1608 13.2116 96.1608 14.4629C96.1608 15.7143 96.5742 16.766 97.4142 17.6048C98.2542 18.4543 99.2834 18.8804 100.515 18.8804C101.733 18.8804 102.773 18.4544 103.613 17.6048C104.453 16.7661 104.867 15.7144 104.867 14.4629C104.867 13.2225 104.453 12.173 103.613 11.3344ZM98.1949 12.0413C98.8216 11.4047 99.5913 11.0863 100.515 11.0863C101.436 11.0863 102.206 11.4047 102.822 12.0413C103.448 12.667 103.756 13.4837 103.756 14.4629C103.756 15.4444 103.448 16.2588 102.822 16.8846C102.206 17.5212 101.436 17.8417 100.515 17.8417C99.5913 17.8417 98.8216 17.5212 98.1949 16.8846C97.5813 16.2457 97.2735 15.4444 97.2735 14.4629C97.2735 13.4837 97.5813 12.6802 98.1949 12.0413ZM107.453 13.4245L107.407 11.7932H107.453L111.758 18.6914H112.895V10.2343H111.807V15.1829L111.853 16.8143H111.807L107.69 10.2343H106.364V18.6914H107.453V13.4245Z" fill="white" stroke="white" stroke-width="0.26666" stroke-miterlimit="10"/>
</g>
<defs>
<clipPath id="clip0_215_184">
<rect width="190" height="56.2058" fill="white" transform="translate(0 0.424194)"/>
</clipPath>
</defs>
</svg>
