<svg width="30" height="31" viewBox="0 0 30 31" fill="none" xmlns="http://www.w3.org/2000/svg">
<path d="M14.9018 0.364258C23.2897 0.364258 30 7.06529 30 15.3127C30 17.89 29.3092 20.4674 28.0264 22.7354C27.9277 22.9416 27.829 23.2509 27.829 23.5601L29.5066 28.3024C29.704 28.921 29.3092 29.4364 28.8158 29.6426C28.6185 29.7457 28.4211 29.7457 28.2237 29.6426L23.7831 27.9931C23.4871 27.89 23.191 27.89 22.9937 28.0962C20.6253 29.5395 17.8623 30.3643 15.0992 30.3643C6.71135 30.3643 0.00105858 23.5601 0.00105858 15.3127C-0.0976221 7.06529 6.71135 0.364258 14.9018 0.364258Z" fill="#D9D3D8"/>
<path d="M15 13.3643C13.8949 13.3643 13 14.2611 13 15.3643C13 16.4674 13.8949 17.3643 15 17.3643C16.1051 17.3643 17 16.4693 17 15.3643C17 14.2611 16.1051 13.3643 15 13.3643Z" fill="white"/>
<path d="M22 13.3643C20.8949 13.3643 20 14.2611 20 15.3643C20 16.4674 20.8949 17.3643 22 17.3643C23.1051 17.3643 24 16.4693 24 15.3643C24 14.2611 23.1051 13.3643 22 13.3643Z" fill="white"/>
<path d="M8 13.3643C6.89493 13.3643 6 14.2611 6 15.3643C6 16.4674 6.89493 17.3643 8 17.3643C9.10507 17.3643 10 16.4693 10 15.3643C10 14.2611 9.10507 13.3643 8 13.3643Z" fill="white"/>
</svg>
