<svg width="30" height="30" viewBox="0 0 30 30" fill="none" xmlns="http://www.w3.org/2000/svg">
<path d="M14.9018 0C23.2897 0 30 6.70103 30 14.9485C30 17.5258 29.3092 20.1031 28.0264 22.3711C27.9277 22.5773 27.829 22.8866 27.829 23.1959L29.5066 27.9381C29.704 28.5567 29.3092 29.0722 28.8158 29.2784C28.6185 29.3814 28.4211 29.3814 28.2237 29.2784L23.7831 27.6289C23.4871 27.5258 23.191 27.5258 22.9937 27.732C20.6253 29.1753 17.8623 30 15.0992 30C6.71135 30 0.00105858 23.1959 0.00105858 14.9485C-0.0976219 6.70103 6.71135 0 14.9018 0ZM15.9873 5.87629H13.0269V13.0928L13.323 17.8351H15.6913L15.8887 13.0928V5.87629H15.9873ZM14.5071 23.7113C15.8887 23.7113 16.2834 22.8866 16.2834 21.8557C16.2834 20.8247 15.8887 20 14.5071 20C13.1256 20 12.7309 20.8247 12.7309 21.8557C12.6322 22.8866 13.1256 23.7113 14.5071 23.7113Z" fill="#D9D3D8"/>
</svg>
