<svg width="66" height="50" viewBox="0 0 66 50" fill="none" xmlns="http://www.w3.org/2000/svg">
<path d="M50.8862 1.59383C52.0264 2.72384 52.5644 4.12099 52.3919 5.21378C51.2348 5.33391 49.79 4.77048 48.65 3.63719C47.5065 2.50555 46.9685 1.11153 47.1445 0.0154472C48.2981 -0.102887 49.7428 0.46204 50.8862 1.59383Z" fill="#999999"/>
<path d="M52.5508 11.6506C51.3294 10.4309 50.7612 8.9304 50.9505 7.75483C52.1955 7.63142 53.7451 8.2455 54.9664 9.46679C56.1878 10.6882 56.7562 12.1903 56.5666 13.3626C55.3217 13.486 53.7756 12.8737 52.5508 11.6506Z" fill="#999999"/>
<path d="M54.9157 2.67139C56.0254 3.03835 57.0877 4.13623 57.6156 5.61645C58.1466 7.09488 58.0012 8.55986 57.3483 9.46664C56.2419 9.0961 55.1796 8.00166 54.6519 6.52158C54.1207 5.04136 54.2661 3.57638 54.9157 2.67139Z" fill="#999999"/>
<path d="M61.5097 11.0939C62.5281 11.9077 63.1776 13.4622 63.0932 15.2132C63.0119 16.9589 62.2236 18.4339 61.1341 19.1258C60.1193 18.3121 59.4696 16.7542 59.5542 15.0067C59.6353 13.2577 60.4236 11.7858 61.5097 11.0939Z" fill="#999999"/>
<path d="M59.1617 23.3143C57.8118 23.0403 56.4212 21.9035 55.6059 20.2457C54.7872 18.5896 54.7602 16.8522 55.4062 15.7002C56.7527 15.9761 58.1433 17.1111 58.9619 18.7707C59.7809 20.4249 59.8079 22.1623 59.1617 23.3143Z" fill="#999999"/>
<path d="M60.8263 29.4448C60.3222 28.2048 60.549 26.4809 61.5469 24.9468C62.545 23.409 64.0505 22.4752 65.414 22.3906C65.9183 23.6289 65.6915 25.356 64.6934 26.8904C63.6953 28.4264 62.1897 29.3619 60.8263 29.4448Z" fill="#999999"/>
<path d="M58.1399 30.5207C58.1299 32.3492 57.3686 33.9192 56.2657 34.6838C55.1694 33.8734 54.4285 32.2732 54.4386 30.4445C54.4488 28.6175 55.2068 27.0478 56.3096 26.2814C57.4058 27.0917 58.15 28.6921 58.1399 30.5207Z" fill="#999999"/>
<path d="M53.4135 39.6672C53.082 41.5737 52.0097 43.0827 50.7205 43.69C49.7192 42.6549 49.2251 40.8582 49.5566 38.9519C49.8916 37.0469 50.9608 35.5414 52.2532 34.9309C53.2511 35.9642 53.7485 37.7624 53.4135 39.6672Z" fill="#999999"/>
<path d="M59.923 41.3184C58.1602 42.4297 56.1608 42.7259 54.7094 42.2268C54.7769 40.7719 55.8327 39.143 57.5953 38.0315C59.358 36.9184 61.3573 36.6224 62.8088 37.1196C62.7412 38.5746 61.6856 40.2053 59.923 41.3184Z" fill="#999999"/>
<path d="M50.5006 49.614C48.4604 50.262 46.4169 50.0659 45.1415 49.2369C45.6253 47.8531 47.1242 46.5303 49.1675 45.8858C51.2078 45.2361 53.2513 45.4324 54.5267 46.2614C54.0429 47.6467 52.5441 48.9662 50.5006 49.614Z" fill="#999999"/>
<path d="M15.1725 49.614C13.1291 48.9662 11.6302 47.6467 11.1464 46.2612C12.4218 45.4323 14.462 45.2361 16.5055 45.8856C18.5456 46.5302 20.0444 47.8529 20.5316 49.2368C19.2562 50.0659 17.2127 50.262 15.1725 49.614Z" fill="#999999"/>
<path d="M5.75027 41.3184C3.98751 40.2053 2.93192 38.5746 2.86439 37.1196C4.31577 36.6224 6.31535 36.9184 8.07796 38.0315C9.84072 39.143 10.8963 40.7719 10.964 42.2268C9.51246 42.7259 7.51288 42.4297 5.75027 41.3184Z" fill="#999999"/>
<path d="M13.42 34.9307C14.7092 35.5414 15.7816 37.0469 16.1132 38.9517C16.4447 40.8581 15.9541 42.6547 14.9527 43.6899C13.6636 43.0825 12.5911 41.5736 12.2595 39.6671C11.9246 37.7624 12.4187 35.9642 13.42 34.9307Z" fill="#999999"/>
<path d="M11.2344 30.4445C11.2446 32.2732 10.5004 33.8735 9.40414 34.6838C8.30103 33.9191 7.54321 32.3492 7.5332 30.5207C7.52304 28.6921 8.26727 27.0917 9.36021 26.2814C10.4632 27.0478 11.2243 28.6175 11.2344 30.4445Z" fill="#999999"/>
<path d="M0.979855 26.8904C-0.0182162 25.356 -0.245024 23.6291 0.259241 22.3906C1.62262 22.4752 3.12496 23.409 4.12632 24.9468C5.12439 26.4809 5.35105 28.2048 4.84693 29.4448C3.4834 29.3619 1.97793 28.4264 0.979855 26.8904Z" fill="#999999"/>
<path d="M4.16008 11.0939C5.24945 11.7857 6.03789 13.2577 6.11902 15.0067C6.2003 16.7542 5.55395 18.3121 4.53914 19.1258C3.44978 18.434 2.6579 16.959 2.5802 15.2132C2.49549 13.4622 3.14513 11.9077 4.16008 11.0939Z" fill="#999999"/>
<path d="M10.2668 15.7002C10.9132 16.8522 10.886 18.5896 10.0672 20.2457C9.24845 21.9035 7.85788 23.0403 6.51138 23.3143C5.86517 22.1623 5.89222 20.4249 6.71099 18.7707C7.52648 17.1111 8.91691 15.9761 10.2668 15.7002Z" fill="#999999"/>
<path d="M9.10636 13.3626C8.91691 12.1901 9.48527 10.6881 10.7066 9.46679C11.928 8.2455 13.4774 7.63142 14.7192 7.75483C14.9119 8.93055 14.3403 10.4309 13.119 11.6506C11.8975 12.8737 10.3481 13.486 9.10636 13.3626Z" fill="#999999"/>
<path d="M8.0542 5.61645C8.58536 4.13623 9.64424 3.03835 10.7541 2.67139C11.407 3.57653 11.5489 5.04136 11.0214 6.52158C10.4901 8.00166 9.43118 9.09625 8.3215 9.46664C7.66857 8.55986 7.52648 7.09488 8.0542 5.61645Z" fill="#999999"/>
<path d="M14.7868 1.59383C15.9303 0.46204 17.3717 -0.102887 18.5287 0.0154472C18.7011 1.11153 18.1668 2.50555 17.0232 3.63719C15.8796 4.77063 14.4384 5.33391 13.2814 5.21378C13.1087 4.12099 13.6433 2.72384 14.7868 1.59383Z" fill="#999999"/>
<path d="M27.6025 24.4907L28.5733 15.4659C28.6022 15.2 28.8258 15 29.0942 15H38.6943C38.9837 15 39.2178 15.2342 39.2178 15.5238V17.324C39.2178 17.6135 38.9837 17.8477 38.6943 17.8477H31.8277C31.5619 17.8477 31.3383 18.0478 31.3094 18.311L30.9279 21.6325C30.8832 22.0246 31.2673 22.3168 31.6356 22.1773C32.3328 21.9114 33.0931 21.7772 33.9087 21.7772C35.7872 21.7772 37.2473 22.3773 38.2918 23.5801C39.3336 24.7829 39.8571 26.3989 39.8571 28.4307C39.8571 30.4362 39.2783 32.0338 38.1234 33.2208C36.9658 34.4052 35.3794 35 33.3667 35C31.5593 35 30.0623 34.4868 28.8758 33.463C27.8313 32.5602 27.2078 31.4074 27.0052 29.9967C26.9605 29.6835 27.2078 29.4019 27.5262 29.4019H29.6914C29.9387 29.4019 30.1492 29.5756 30.2018 29.8177C30.3649 30.5757 30.6832 31.1705 31.1594 31.6048C31.7198 32.1154 32.4512 32.3707 33.3536 32.3707C34.3638 32.3707 35.1531 32.0101 35.7188 31.2864C36.2818 30.5626 36.5659 29.5782 36.5659 28.3333C36.5659 27.1332 36.2555 26.1804 35.6319 25.4803C35.0084 24.7802 34.1507 24.4302 33.0589 24.4302C32.4617 24.4302 31.9566 24.5091 31.5409 24.6671C31.1857 24.8039 30.8016 25.0487 30.3938 25.4066C30.2623 25.5224 30.086 25.5698 29.9176 25.5277L28.005 25.054C27.8809 25.025 27.7716 24.9519 27.6976 24.8483C27.6235 24.7446 27.5897 24.6175 27.6025 24.4907Z" fill="#999999"/>
</svg>
