<svg width="66" height="50" viewBox="0 0 66 50" fill="none" xmlns="http://www.w3.org/2000/svg">
<path d="M50.8862 1.59383C52.0264 2.72384 52.5644 4.12099 52.3919 5.21378C51.2348 5.33391 49.79 4.77048 48.65 3.63719C47.5065 2.50555 46.9685 1.11153 47.1445 0.0154472C48.2981 -0.102887 49.7428 0.46204 50.8862 1.59383Z" fill="#E5A524"/>
<path d="M52.5508 11.6506C51.3294 10.4309 50.7612 8.9304 50.9505 7.75483C52.1955 7.63142 53.7451 8.2455 54.9664 9.46679C56.1878 10.6882 56.7562 12.1903 56.5666 13.3626C55.3217 13.486 53.7756 12.8737 52.5508 11.6506Z" fill="#E5A524"/>
<path d="M54.9157 2.67139C56.0254 3.03835 57.0877 4.13623 57.6156 5.61645C58.1466 7.09488 58.0012 8.55986 57.3483 9.46664C56.2419 9.0961 55.1796 8.00166 54.6519 6.52158C54.1207 5.04136 54.2661 3.57638 54.9157 2.67139Z" fill="#E5A524"/>
<path d="M61.5097 11.0939C62.5281 11.9077 63.1776 13.4622 63.0932 15.2132C63.0119 16.9589 62.2236 18.4339 61.1341 19.1258C60.1193 18.3121 59.4696 16.7542 59.5542 15.0067C59.6353 13.2577 60.4236 11.7858 61.5097 11.0939Z" fill="#E5A524"/>
<path d="M59.1617 23.3143C57.8118 23.0403 56.4212 21.9035 55.6059 20.2457C54.7872 18.5896 54.7602 16.8522 55.4062 15.7002C56.7527 15.9761 58.1433 17.1111 58.9619 18.7707C59.7809 20.4249 59.8079 22.1623 59.1617 23.3143Z" fill="#E5A524"/>
<path d="M60.8263 29.4448C60.3222 28.2048 60.549 26.4809 61.5469 24.9468C62.545 23.409 64.0505 22.4752 65.414 22.3906C65.9183 23.6289 65.6915 25.356 64.6934 26.8904C63.6953 28.4264 62.1897 29.3619 60.8263 29.4448Z" fill="#E5A524"/>
<path d="M58.1399 30.5207C58.1299 32.3492 57.3686 33.9192 56.2657 34.6838C55.1694 33.8734 54.4285 32.2732 54.4386 30.4445C54.4488 28.6175 55.2068 27.0478 56.3096 26.2814C57.4058 27.0917 58.15 28.6921 58.1399 30.5207Z" fill="#E5A524"/>
<path d="M53.4135 39.6672C53.082 41.5737 52.0097 43.0827 50.7205 43.69C49.7192 42.6549 49.2251 40.8582 49.5566 38.9519C49.8916 37.0469 50.9608 35.5414 52.2532 34.9309C53.2511 35.9642 53.7485 37.7624 53.4135 39.6672Z" fill="#E5A524"/>
<path d="M59.923 41.3184C58.1602 42.4297 56.1608 42.7259 54.7094 42.2268C54.7769 40.7719 55.8327 39.143 57.5953 38.0315C59.358 36.9184 61.3573 36.6224 62.8088 37.1196C62.7412 38.5746 61.6856 40.2053 59.923 41.3184Z" fill="#E5A524"/>
<path d="M50.5006 49.614C48.4604 50.262 46.4169 50.0659 45.1415 49.2369C45.6253 47.8531 47.1242 46.5303 49.1675 45.8858C51.2078 45.2361 53.2513 45.4324 54.5267 46.2614C54.0429 47.6467 52.5441 48.9662 50.5006 49.614Z" fill="#E5A524"/>
<path d="M15.1725 49.614C13.1291 48.9662 11.6302 47.6467 11.1464 46.2612C12.4218 45.4323 14.462 45.2361 16.5055 45.8856C18.5456 46.5302 20.0444 47.8529 20.5316 49.2368C19.2562 50.0659 17.2127 50.262 15.1725 49.614Z" fill="#E5A524"/>
<path d="M5.75027 41.3184C3.98751 40.2053 2.93192 38.5746 2.86439 37.1196C4.31577 36.6224 6.31535 36.9184 8.07796 38.0315C9.84072 39.143 10.8963 40.7719 10.964 42.2268C9.51246 42.7259 7.51288 42.4297 5.75027 41.3184Z" fill="#E5A524"/>
<path d="M13.42 34.9307C14.7092 35.5414 15.7816 37.0469 16.1132 38.9517C16.4447 40.8581 15.9541 42.6547 14.9527 43.6899C13.6636 43.0825 12.5911 41.5736 12.2595 39.6671C11.9246 37.7624 12.4187 35.9642 13.42 34.9307Z" fill="#E5A524"/>
<path d="M11.2344 30.4445C11.2446 32.2732 10.5004 33.8735 9.40414 34.6838C8.30103 33.9191 7.54321 32.3492 7.5332 30.5207C7.52304 28.6921 8.26727 27.0917 9.36021 26.2814C10.4632 27.0478 11.2243 28.6175 11.2344 30.4445Z" fill="#E5A524"/>
<path d="M0.979855 26.8904C-0.0182162 25.356 -0.245024 23.6291 0.259241 22.3906C1.62262 22.4752 3.12496 23.409 4.12632 24.9468C5.12439 26.4809 5.35105 28.2048 4.84693 29.4448C3.4834 29.3619 1.97793 28.4264 0.979855 26.8904Z" fill="#E5A524"/>
<path d="M4.16008 11.0939C5.24945 11.7857 6.03789 13.2577 6.11902 15.0067C6.2003 16.7542 5.55395 18.3121 4.53914 19.1258C3.44978 18.434 2.6579 16.959 2.5802 15.2132C2.49549 13.4622 3.14513 11.9077 4.16008 11.0939Z" fill="#E5A524"/>
<path d="M10.2668 15.7002C10.9132 16.8522 10.886 18.5896 10.0672 20.2457C9.24845 21.9035 7.85788 23.0403 6.51138 23.3143C5.86517 22.1623 5.89222 20.4249 6.71099 18.7707C7.52648 17.1111 8.91691 15.9761 10.2668 15.7002Z" fill="#E5A524"/>
<path d="M9.10636 13.3626C8.91691 12.1901 9.48527 10.6881 10.7066 9.46679C11.928 8.2455 13.4774 7.63142 14.7192 7.75483C14.9119 8.93055 14.3403 10.4309 13.119 11.6506C11.8975 12.8737 10.3481 13.486 9.10636 13.3626Z" fill="#E5A524"/>
<path d="M8.0542 5.61645C8.58536 4.13623 9.64424 3.03835 10.7541 2.67139C11.407 3.57653 11.5489 5.04136 11.0214 6.52158C10.4901 8.00166 9.43118 9.09625 8.3215 9.46664C7.66857 8.55986 7.52648 7.09488 8.0542 5.61645Z" fill="#E5A524"/>
<path d="M14.7868 1.59383C15.9303 0.46204 17.3717 -0.102887 18.5287 0.0154472C18.7011 1.11153 18.1668 2.50555 17.0232 3.63719C15.8796 4.77063 14.4384 5.33391 13.2814 5.21378C13.1087 4.12099 13.6433 2.72384 14.7868 1.59383Z" fill="#E5A524"/>
<path d="M38.1735 27.8658H39.5305C39.8203 27.8658 40.0541 28.1079 40.0541 28.4079V30.0053C40.0541 30.3053 39.8203 30.5474 39.5305 30.5474H38.1735C37.8838 30.5474 37.65 30.7895 37.65 31.0895V34.4579C37.65 34.7579 37.4162 35 37.1265 35H34.9486C34.6588 35 34.425 34.7579 34.425 34.4579V31.0895C34.425 30.7895 34.1912 30.5474 33.9015 30.5474H26.5825C26.303 30.5474 26.0743 30.3211 26.0616 30.0316L26.0006 28.6868C25.9955 28.5763 26.0235 28.4658 26.0819 28.3711L34.1684 15.25C34.2156 15.1736 34.2806 15.1106 34.3574 15.0669C34.4342 15.0232 34.5204 15.0002 34.608 15H37.129C37.4187 15 37.6525 15.2421 37.6525 15.5421V27.3316C37.65 27.6237 37.8838 27.8658 38.1735 27.8658ZM30.3208 27.8658H33.9066C34.1963 27.8658 34.4301 27.6237 34.4301 27.3237V19.5132L34.1912 19.9526L29.8786 27.0368C29.6575 27.3974 29.9091 27.8658 30.3208 27.8658Z" fill="#E5A524"/>
</svg>
