<svg width="60" height="46" viewBox="0 0 60 46" fill="none" xmlns="http://www.w3.org/2000/svg">
<path d="M15.3052 7.48981C15.3052 8.23693 15.9201 8.84265 16.6786 8.84265L18.5097 7.48981L16.6786 6.13696C15.9201 6.13688 15.3052 6.7426 15.3052 7.48981Z" fill="#B5702C"/>
<path d="M44.1471 6.13696L42.3159 7.48981L44.1471 8.84265C44.9056 8.84265 45.5205 8.23693 45.5205 7.48981C45.5205 6.74268 44.9056 6.13696 44.1471 6.13696Z" fill="#B5702C"/>
<path d="M41.4003 1.17645L38.6536 16.5091L44.1471 13.8033V1.17645H41.4003Z" fill="#B5702C"/>
<path d="M41.4003 1.17645V16.5091L16.679 13.8033V1.17645H41.4003Z" fill="#CD7F32"/>
<path d="M34.5331 22.8162L32.885 30.0378H34.5331C36.0438 30.0378 37.2799 28.8203 37.2799 27.332V25.5219L34.5331 22.8162Z" fill="#945C24"/>
<path d="M23.5457 22.8162V27.332C23.5457 28.8202 24.7817 30.0378 26.2925 30.0378H32.8849C33.7913 30.0378 34.5329 28.8203 34.5329 27.332V22.8162H23.5457Z" fill="#B5702C"/>
<path d="M41.4002 13.8033L35.9065 25.5219H37.2799C41.3855 23.1833 44.1469 18.8108 44.1469 13.8033H41.4002Z" fill="#945C24"/>
<path d="M16.679 13.8033C16.679 18.8107 19.4404 23.1824 23.5451 25.5219H35.9067C39.191 23.1833 41.4004 18.8108 41.4004 13.8033H16.679Z" fill="#B5702C"/>
<path d="M37.9669 8.84277C38.7254 8.84277 39.3403 8.23708 39.3403 7.48993C39.3403 6.74277 38.7254 6.13708 37.9669 6.13708C37.2084 6.13708 36.5935 6.74277 36.5935 7.48993C36.5935 8.23708 37.2084 8.84277 37.9669 8.84277Z" fill="#B5702C"/>
<path d="M30.4134 8.84277C31.1719 8.84277 31.7868 8.23708 31.7868 7.48993C31.7868 6.74277 31.1719 6.13708 30.4134 6.13708C29.6549 6.13708 29.04 6.74277 29.04 7.48993C29.04 8.23708 29.6549 8.84277 30.4134 8.84277Z" fill="#B5702C"/>
<path d="M22.8592 8.84277C23.6177 8.84277 24.2326 8.23708 24.2326 7.48993C24.2326 6.74277 23.6177 6.13708 22.8592 6.13708C22.1007 6.13708 21.4858 6.74277 21.4858 7.48993C21.4858 8.23708 22.1007 8.84277 22.8592 8.84277Z" fill="#B5702C"/>
<path d="M37.4997 44.783H23.7852C24.4363 42.9452 26.1961 41.7141 28.1722 41.7141H33.1128C35.0888 41.714 36.8487 42.9451 37.4997 44.783Z" fill="#CD7F32"/>
<path d="M30.6713 41.714H28.1722C26.1961 41.714 24.4363 42.945 23.7852 44.7829H26.2843C26.9353 42.945 28.6953 41.714 30.6713 41.714Z" fill="#B5702C"/>
<path d="M32.1614 29.4494V41.714H29.1228V29.4494" fill="#B5702C"/>
</svg>
