<svg width="60" height="46" viewBox="0 0 60 46" fill="none" xmlns="http://www.w3.org/2000/svg">
<path d="M32.4587 25.4821C32.5173 25.1718 32.1439 24.9468 31.8877 25.1387C31.0336 25.7782 30.0746 26.0979 29.0106 26.0979C27.4097 26.0979 26.1335 25.5532 25.1817 24.4637C24.23 23.3742 23.7542 21.9437 23.7542 20.1697C23.7542 19.0045 23.9957 17.9482 24.4789 17.0008C24.9621 16.0534 25.6503 15.3168 26.5434 14.7911C27.4366 14.2629 28.4713 14 29.6475 14C31.4826 14 32.9395 14.6632 34.0157 15.9918C35.0918 17.3205 35.6311 19.0968 35.6311 21.3232V22.1497C35.6311 25.34 34.8893 27.7724 33.4031 29.4492C31.917 31.1261 29.7012 31.9763 26.7557 32C26.5556 32 26.3946 31.8437 26.3946 31.6495V29.9111C26.3946 29.7168 26.5556 29.5605 26.7557 29.5605H26.8314C28.625 29.5368 30.0013 29.1176 30.9604 28.3029C31.7315 27.6468 32.2318 26.7089 32.4587 25.4821ZM29.7134 23.7816C30.2917 23.7697 30.8359 23.6016 31.346 23.2771C31.3508 23.2747 31.3557 23.27 31.3606 23.2676C32.1366 22.7679 32.571 21.8987 32.571 20.9939V20.7382C32.571 19.4474 32.2977 18.41 31.7535 17.6237C31.2093 16.8374 30.5016 16.4442 29.6353 16.4442C28.769 16.4442 28.0759 16.79 27.5586 17.4839C27.0412 18.1779 26.785 19.0542 26.785 20.1129C26.785 21.2261 27.0534 22.1213 27.5879 22.7987C28.0881 23.4334 28.891 23.7982 29.7134 23.7816Z" fill="#9D5C63"/>
</svg>
