<svg width="13" height="20" viewBox="0 0 13 20" fill="none" xmlns="http://www.w3.org/2000/svg">
<path d="M9.52763 12.7579C9.59174 12.4132 9.18307 12.1632 8.90261 12.3763C7.96774 13.0868 6.91802 13.4421 5.75344 13.4421C4.00123 13.4421 2.60427 12.8368 1.56256 11.6263C0.520855 10.4158 0 8.82632 0 6.85526C0 5.56053 0.264434 4.38684 0.793302 3.33421C1.32217 2.28158 2.07541 1.46316 3.05301 0.878947C4.03061 0.292105 5.16314 0 6.45059 0C8.45922 0 10.0538 0.736842 11.2318 2.21316C12.4097 3.68947 13 5.66316 13 8.13684V9.05526C13 12.6 12.188 15.3026 10.5613 17.1658C8.93466 19.0289 6.50935 19.9737 3.28539 20C3.06637 20 2.89008 19.8263 2.89008 19.6105V17.6789C2.89008 17.4632 3.06637 17.2895 3.28539 17.2895H3.36819C5.33142 17.2632 6.83789 16.7974 7.88761 15.8921C8.73166 15.1632 9.27923 14.1211 9.52763 12.7579ZM6.5227 10.8684C7.15574 10.8553 7.75139 10.6684 8.30964 10.3079C8.31498 10.3053 8.32032 10.3 8.32566 10.2974C9.17506 9.7421 9.6505 8.77632 9.6505 7.77105V7.48684C9.6505 6.05263 9.35135 4.9 8.7557 4.02632C8.16006 3.15263 7.38545 2.71579 6.43723 2.71579C5.48901 2.71579 4.73043 3.1 4.16417 3.87105C3.5979 4.64211 3.31744 5.61579 3.31744 6.79211C3.31744 8.02895 3.61126 9.02368 4.19622 9.77632C4.74379 10.4816 5.62256 10.8868 6.5227 10.8684Z" fill="#9D5C63"/>
</svg>
