<svg width="66" height="50" viewBox="0 0 66 50" fill="none" xmlns="http://www.w3.org/2000/svg">
<path d="M50.8862 1.59383C52.0264 2.72384 52.5644 4.12099 52.3919 5.21378C51.2348 5.33391 49.79 4.77048 48.65 3.63719C47.5065 2.50555 46.9685 1.11153 47.1445 0.0154472C48.2981 -0.102887 49.7428 0.46204 50.8862 1.59383Z" fill="#CD7F32"/>
<path d="M52.5508 11.6506C51.3294 10.4309 50.7612 8.9304 50.9505 7.75483C52.1955 7.63142 53.7451 8.2455 54.9664 9.46679C56.1878 10.6882 56.7562 12.1903 56.5666 13.3626C55.3217 13.486 53.7756 12.8737 52.5508 11.6506Z" fill="#CD7F32"/>
<path d="M54.9157 2.67139C56.0254 3.03835 57.0877 4.13623 57.6156 5.61645C58.1466 7.09488 58.0012 8.55986 57.3483 9.46664C56.2419 9.0961 55.1796 8.00166 54.6519 6.52158C54.1207 5.04136 54.2661 3.57638 54.9157 2.67139Z" fill="#CD7F32"/>
<path d="M61.5097 11.0939C62.5281 11.9077 63.1776 13.4622 63.0932 15.2132C63.0119 16.9589 62.2236 18.4339 61.1341 19.1258C60.1193 18.3121 59.4696 16.7542 59.5542 15.0067C59.6353 13.2577 60.4236 11.7858 61.5097 11.0939Z" fill="#CD7F32"/>
<path d="M59.1617 23.3143C57.8118 23.0403 56.4212 21.9035 55.6059 20.2457C54.7872 18.5896 54.7602 16.8522 55.4062 15.7002C56.7527 15.9761 58.1433 17.1111 58.9619 18.7707C59.7809 20.4249 59.8079 22.1623 59.1617 23.3143Z" fill="#CD7F32"/>
<path d="M60.8263 29.4448C60.3222 28.2048 60.549 26.4809 61.5469 24.9468C62.545 23.409 64.0505 22.4752 65.414 22.3906C65.9183 23.6289 65.6915 25.356 64.6934 26.8904C63.6953 28.4264 62.1897 29.3619 60.8263 29.4448Z" fill="#CD7F32"/>
<path d="M58.1399 30.5207C58.1299 32.3492 57.3686 33.9192 56.2657 34.6838C55.1694 33.8734 54.4285 32.2732 54.4386 30.4445C54.4488 28.6175 55.2068 27.0478 56.3096 26.2814C57.4058 27.0917 58.15 28.6921 58.1399 30.5207Z" fill="#CD7F32"/>
<path d="M53.4135 39.6672C53.082 41.5737 52.0097 43.0827 50.7205 43.69C49.7192 42.6549 49.2251 40.8582 49.5566 38.9519C49.8916 37.0469 50.9608 35.5414 52.2532 34.9309C53.2511 35.9642 53.7485 37.7624 53.4135 39.6672Z" fill="#CD7F32"/>
<path d="M59.923 41.3184C58.1602 42.4297 56.1608 42.7259 54.7094 42.2268C54.7769 40.7719 55.8327 39.143 57.5953 38.0315C59.358 36.9184 61.3573 36.6224 62.8088 37.1196C62.7412 38.5746 61.6856 40.2053 59.923 41.3184Z" fill="#CD7F32"/>
<path d="M50.5006 49.614C48.4604 50.262 46.4169 50.0659 45.1415 49.2369C45.6253 47.8531 47.1242 46.5303 49.1675 45.8858C51.2078 45.2361 53.2513 45.4324 54.5267 46.2614C54.0429 47.6467 52.5441 48.9662 50.5006 49.614Z" fill="#CD7F32"/>
<path d="M15.1725 49.614C13.1291 48.9662 11.6302 47.6467 11.1464 46.2612C12.4218 45.4323 14.462 45.2361 16.5055 45.8856C18.5456 46.5302 20.0444 47.8529 20.5316 49.2368C19.2562 50.0659 17.2127 50.262 15.1725 49.614Z" fill="#CD7F32"/>
<path d="M5.75027 41.3184C3.98751 40.2053 2.93192 38.5746 2.86439 37.1196C4.31577 36.6224 6.31535 36.9184 8.07796 38.0315C9.84072 39.143 10.8963 40.7719 10.964 42.2268C9.51246 42.7259 7.51288 42.4297 5.75027 41.3184Z" fill="#CD7F32"/>
<path d="M13.42 34.9307C14.7092 35.5414 15.7816 37.0469 16.1132 38.9517C16.4447 40.8581 15.9541 42.6547 14.9527 43.6899C13.6636 43.0825 12.5911 41.5736 12.2595 39.6671C11.9246 37.7624 12.4187 35.9642 13.42 34.9307Z" fill="#CD7F32"/>
<path d="M11.2344 30.4445C11.2446 32.2732 10.5004 33.8735 9.40414 34.6838C8.30103 33.9191 7.54321 32.3492 7.5332 30.5207C7.52304 28.6921 8.26727 27.0917 9.36021 26.2814C10.4632 27.0478 11.2243 28.6175 11.2344 30.4445Z" fill="#CD7F32"/>
<path d="M0.979855 26.8904C-0.0182162 25.356 -0.245024 23.6291 0.259241 22.3906C1.62262 22.4752 3.12496 23.409 4.12632 24.9468C5.12439 26.4809 5.35105 28.2048 4.84693 29.4448C3.4834 29.3619 1.97793 28.4264 0.979855 26.8904Z" fill="#CD7F32"/>
<path d="M4.16008 11.0939C5.24945 11.7857 6.03789 13.2577 6.11902 15.0067C6.2003 16.7542 5.55395 18.3121 4.53914 19.1258C3.44978 18.434 2.6579 16.959 2.5802 15.2132C2.49549 13.4622 3.14513 11.9077 4.16008 11.0939Z" fill="#CD7F32"/>
<path d="M10.2668 15.7002C10.9132 16.8522 10.886 18.5896 10.0672 20.2457C9.24845 21.9035 7.85788 23.0403 6.51138 23.3143C5.86517 22.1623 5.89222 20.4249 6.71099 18.7707C7.52648 17.1111 8.91691 15.9761 10.2668 15.7002Z" fill="#CD7F32"/>
<path d="M9.10636 13.3626C8.91691 12.1901 9.48527 10.6881 10.7066 9.46679C11.928 8.2455 13.4774 7.63142 14.7192 7.75483C14.9119 8.93055 14.3403 10.4309 13.119 11.6506C11.8975 12.8737 10.3481 13.486 9.10636 13.3626Z" fill="#CD7F32"/>
<path d="M8.0542 5.61645C8.58536 4.13623 9.64424 3.03835 10.7541 2.67139C11.407 3.57653 11.5489 5.04136 11.0214 6.52158C10.4901 8.00166 9.43118 9.09625 8.3215 9.46664C7.66857 8.55986 7.52648 7.09488 8.0542 5.61645Z" fill="#CD7F32"/>
<path d="M14.7868 1.59383C15.9303 0.46204 17.3717 -0.102887 18.5287 0.0154472C18.7011 1.11153 18.1668 2.50555 17.0232 3.63719C15.8796 4.77063 14.4384 5.33391 13.2814 5.21378C13.1087 4.12099 13.6433 2.72384 14.7868 1.59383Z" fill="#CD7F32"/>
<path d="M37.0881 17.3005C37.0881 17.5242 36.9065 17.7032 36.6854 17.7032C34.851 17.7295 33.385 18.2348 32.2875 19.2139C31.4374 19.9745 30.8531 20.9799 30.5373 22.2327C30.4452 22.5985 30.8478 22.8854 31.1584 22.6696C32.0611 22.0379 33.1297 21.7247 34.3667 21.7247C36.1037 21.7247 37.4723 22.3353 38.4751 23.5591C39.4778 24.783 39.9805 26.3621 39.9805 28.2939C39.9805 30.2915 39.3936 31.9075 38.2198 33.1445C37.046 34.3815 35.5063 35 33.5982 35C31.6374 35 30.0477 34.2762 28.8292 32.8287C27.6106 31.3811 27 29.4835 27 27.1359V26.0173C27 22.5722 27.8396 19.8745 29.5161 17.9216C31.111 16.0661 33.1639 15.0949 36.4854 15.0002C36.7801 14.9923 37.0275 15.2213 37.0354 15.5161L37.0881 17.3005ZM32.5665 24.4908C32.5428 24.4961 32.5165 24.504 32.4954 24.5119C32.2296 24.6145 31.9822 24.733 31.7558 24.8698C30.8136 25.4409 30.2715 26.4937 30.2715 27.5938C30.2715 29.0519 30.5768 30.2099 31.19 31.0679C31.8006 31.9259 32.5928 32.3576 33.564 32.3576C34.5351 32.3576 35.3036 31.9944 35.8721 31.2653C36.438 30.5363 36.7222 29.5783 36.7222 28.3913C36.7222 27.2043 36.4354 26.2384 35.859 25.4909C35.0957 24.4987 33.9982 24.1671 32.5665 24.4908Z" fill="#CD7F32"/>
</svg>
