<svg width="60" height="46" viewBox="0 0 60 46" fill="none" xmlns="http://www.w3.org/2000/svg">
<path d="M46.4904 1.93445C47.5321 2.95145 48.0236 4.20889 47.8659 5.1924C46.8089 5.30052 45.4888 4.79343 44.4473 3.77347C43.4026 2.75499 42.9111 1.50038 43.0719 0.513902C44.1259 0.407402 45.4457 0.915836 46.4904 1.93445Z" fill="#E5A524"/>
<path d="M48.0112 10.9855C46.8953 9.88785 46.3761 8.53736 46.5491 7.47935C47.6866 7.36827 49.1023 7.92095 50.2181 9.02011C51.334 10.1194 51.8532 11.4712 51.68 12.5263C50.5427 12.6374 49.1301 12.0863 48.0112 10.9855Z" fill="#E5A524"/>
<path d="M50.1718 2.90425C51.1856 3.23451 52.1562 4.2226 52.6384 5.5548C53.1236 6.88539 52.9907 8.20387 52.3942 9.01998C51.3834 8.68649 50.4129 7.70149 49.9307 6.36943C49.4454 5.03723 49.5783 3.71874 50.1718 2.90425Z" fill="#E5A524"/>
<path d="M56.1961 10.4845C57.1266 11.217 57.72 12.616 57.6428 14.1918C57.5686 15.763 56.8484 17.0905 55.853 17.7132C54.9258 16.9809 54.3323 15.5788 54.4096 14.006C54.4837 12.4319 55.2039 11.1072 56.1961 10.4845Z" fill="#E5A524"/>
<path d="M54.051 21.4828C52.8177 21.2362 51.5472 20.2132 50.8023 18.7211C50.0544 17.2306 50.0297 15.667 50.6199 14.6302C51.8501 14.8785 53.1206 15.9 53.8685 17.3936C54.6167 18.8825 54.6414 20.4461 54.051 21.4828Z" fill="#E5A524"/>
<path d="M55.5718 27.0003C55.1112 25.8843 55.3184 24.3328 56.2301 22.9521C57.142 21.5681 58.5174 20.7277 59.7632 20.6515C60.2239 21.766 60.0166 23.3204 59.1048 24.7014C58.1929 26.0838 56.8174 26.9257 55.5718 27.0003Z" fill="#E5A524"/>
<path d="M53.1174 27.9686C53.1083 29.6143 52.4128 31.0273 51.4051 31.7154C50.4036 30.986 49.7266 29.5458 49.7359 27.9001C49.7452 26.2557 50.4377 24.843 51.4452 24.1533C52.4468 24.8825 53.1267 26.3229 53.1174 27.9686Z" fill="#E5A524"/>
<path d="M48.7994 36.2005C48.4965 37.9164 47.5168 39.2744 46.339 39.821C45.4241 38.8894 44.9727 37.2724 45.2756 35.5567C45.5817 33.8422 46.5585 32.4873 47.7393 31.9378C48.651 32.8678 49.1054 34.4862 48.7994 36.2005Z" fill="#E5A524"/>
<path d="M54.7465 37.6866C53.136 38.6867 51.3093 38.9533 49.9833 38.5041C50.045 37.1947 51.0095 35.7287 52.6199 34.7283C54.2303 33.7265 56.0569 33.4601 57.3831 33.9077C57.3212 35.2171 56.3568 36.6847 54.7465 37.6866Z" fill="#E5A524"/>
<path d="M46.1381 45.1526C44.2741 45.7358 42.4071 45.5593 41.2419 44.8132C41.6839 43.5678 43.0533 42.3773 44.9202 41.7972C46.7841 41.2125 48.6511 41.3892 49.8163 42.1352C49.3743 43.3821 48.005 44.5696 46.1381 45.1526Z" fill="#E5A524"/>
<path d="M13.8618 45.1526C11.995 44.5696 10.6255 43.3821 10.1835 42.1351C11.3487 41.3891 13.2127 41.2125 15.0797 41.7971C16.9435 42.3772 18.3128 43.5676 18.7579 44.8131C17.5927 45.5593 15.7258 45.7358 13.8618 45.1526Z" fill="#E5A524"/>
<path d="M5.25353 37.6866C3.64305 36.6847 2.67864 35.2171 2.61694 33.9077C3.94295 33.4601 5.76979 33.7265 7.38014 34.7283C8.99062 35.7287 9.95503 37.1947 10.0169 38.5041C8.69072 38.9533 6.86388 38.6867 5.25353 37.6866Z" fill="#E5A524"/>
<path d="M12.2607 31.9377C13.4385 32.4873 14.4183 33.8422 14.7212 35.5565C15.0241 37.2723 14.5759 38.8893 13.661 39.8209C12.4832 39.2742 11.5034 37.9162 11.2005 36.2004C10.8945 34.4862 11.3459 32.8678 12.2607 31.9377Z" fill="#E5A524"/>
<path d="M10.2639 27.9001C10.2732 29.5458 9.59329 30.9862 8.59176 31.7154C7.58394 31.0272 6.89159 29.6143 6.88244 27.9686C6.87316 26.3229 7.55309 24.8825 8.55162 24.1533C9.5593 24.843 10.2547 26.2557 10.2639 27.9001Z" fill="#E5A524"/>
<path d="M0.895209 24.7014C-0.0166426 23.3204 -0.223858 21.7662 0.236846 20.6515C1.48245 20.7277 2.85501 21.5681 3.76986 22.9521C4.68171 24.3328 4.88879 25.8843 4.42822 27.0003C3.18248 26.9257 1.80706 26.0838 0.895209 24.7014Z" fill="#E5A524"/>
<path d="M3.80071 10.4845C4.79597 11.1071 5.5163 12.4319 5.59043 14.006C5.66468 15.5788 5.07417 16.9809 4.14703 17.7132C3.15177 17.0906 2.42829 15.7631 2.35731 14.1918C2.27991 12.616 2.87344 11.217 3.80071 10.4845Z" fill="#E5A524"/>
<path d="M9.37994 14.6302C9.97045 15.667 9.94561 17.2306 9.19756 18.7211C8.44952 20.2132 7.17907 21.2362 5.94889 21.4828C5.35851 20.4461 5.38321 18.8825 6.13126 17.3936C6.8763 15.9 8.14661 14.8785 9.37994 14.6302Z" fill="#E5A524"/>
<path d="M8.3197 12.5263C8.14661 11.4711 8.66588 10.1193 9.78167 9.02011C10.8976 7.92095 12.3131 7.36827 13.4476 7.47935C13.6237 8.5375 13.1015 9.88785 11.9857 10.9855C10.8697 12.0863 9.45419 12.6374 8.3197 12.5263Z" fill="#E5A524"/>
<path d="M7.35843 5.5548C7.84371 4.2226 8.81112 3.23451 9.82508 2.90425C10.4216 3.71887 10.5513 5.03723 10.0693 6.36943C9.58387 7.70149 8.61646 8.68662 7.60264 9.01998C7.00612 8.20387 6.8763 6.88539 7.35843 5.5548Z" fill="#E5A524"/>
<path d="M13.5095 1.93445C14.5541 0.915836 15.871 0.407402 16.9281 0.513902C17.0856 1.50038 16.5975 2.75499 15.5527 3.77347C14.5079 4.79357 13.1911 5.30052 12.1341 5.1924C11.9763 4.20889 12.4647 2.95145 13.5095 1.93445Z" fill="#E5A524"/>
<path d="M34.8758 25.5792H36.1156C36.3803 25.5792 36.5939 25.7971 36.5939 26.0671V27.5047C36.5939 27.7747 36.3803 27.9926 36.1156 27.9926H34.8758C34.6111 27.9926 34.3975 28.2105 34.3975 28.4805V31.5121C34.3975 31.7821 34.1839 32 33.9192 32H31.9294C31.6647 32 31.4511 31.7821 31.4511 31.5121V28.4805C31.4511 28.2105 31.2375 27.9926 30.9729 27.9926H24.2861C24.0307 27.9926 23.8218 27.7889 23.8102 27.5284L23.7544 26.3182C23.7498 26.2187 23.7753 26.1192 23.8287 26.0339L31.2166 14.225C31.2598 14.1562 31.3192 14.0995 31.3893 14.0602C31.4595 14.0209 31.5383 14.0002 31.6183 14H33.9215C34.1862 14 34.3998 14.2179 34.3998 14.4879V25.0984C34.3975 25.3613 34.6111 25.5792 34.8758 25.5792ZM27.7015 25.5792H30.9775C31.2422 25.5792 31.4558 25.3613 31.4558 25.0913V18.0618L31.2375 18.4574L27.2975 24.8332C27.0955 25.1576 27.3253 25.5792 27.7015 25.5792Z" fill="#E5A524"/>
</svg>
