<svg width="60" height="46" viewBox="0 0 60 46" fill="none" xmlns="http://www.w3.org/2000/svg">
<path d="M23.8839 32H21.607C21.4317 32 21.2909 31.8558 21.2909 31.6761V18.0407C21.2909 17.8185 21.0787 17.6624 20.8734 17.7334L17.4176 18.9415C17.2122 19.0125 17 18.8564 17 18.6342V16.7994C17 16.6647 17.0831 16.5417 17.2076 16.4944L23.7755 14.0189C23.8101 14.0047 23.847 14 23.8839 14C24.0593 14 24.2 14.1442 24.2 14.3239V31.6761C24.2 31.8534 24.0593 32 23.8839 32Z" fill="#9D5C63"/>
<path d="M42.8975 24.3849C42.8975 26.9035 42.4165 28.8037 41.4544 30.0808C40.4923 31.3603 39.0298 32 37.0669 32C35.1354 32 33.6802 31.3769 32.7035 30.1282C31.7245 28.8819 31.2241 27.0338 31.2 24.5887V21.5559C31.2 19.0373 31.681 17.1489 32.6431 15.8884C33.6052 14.6302 35.0726 14 37.0451 14C39.0008 14 40.4584 14.6137 41.4205 15.841C42.3826 17.0683 42.8758 18.9046 42.9 21.3521V24.3849H42.8975ZM39.9145 21.1128C39.9145 19.4685 39.6849 18.2625 39.228 17.4972C38.7687 16.7319 38.0411 16.348 37.0427 16.348C36.0685 16.348 35.353 16.7105 34.8937 17.4379C34.4344 18.163 34.1951 19.2979 34.1685 20.838V24.809C34.1685 26.4462 34.4005 27.6641 34.8671 28.4673C35.3336 29.2705 36.0661 29.6709 37.0645 29.6709C38.0217 29.6709 38.73 29.2989 39.1893 28.5573C39.6462 27.8157 39.8879 26.6547 39.9145 25.0744V21.1128Z" fill="#9D5C63"/>
</svg>
