<svg width="60" height="46" viewBox="0 0 60 46" fill="none" xmlns="http://www.w3.org/2000/svg">
<path d="M36.1452 18.8594C36.1452 19.7166 35.9173 20.4815 35.4614 21.1517C35.0056 21.8219 34.383 22.3476 33.5938 22.7336C34.5399 23.1598 35.2678 23.74 35.78 24.4789C36.2898 25.2177 36.5447 26.0513 36.5447 26.982C36.5447 28.5212 36.0055 29.7432 34.9271 30.6454C33.8487 31.5477 32.4125 32 30.6185 32C28.8171 32 27.376 31.5477 26.2927 30.6407C25.2094 29.7337 24.6677 28.5165 24.6677 26.9843C24.6677 26.0466 24.9251 25.2035 25.4398 24.4576C25.9544 23.7116 26.6774 23.1385 27.6063 22.736C26.827 22.35 26.2093 21.8242 25.7584 21.1541C25.305 20.4839 25.0795 19.7214 25.0795 18.8617C25.0795 17.3698 25.577 16.1881 26.5745 15.3119C27.5647 14.4381 28.9102 14 30.6038 14C32.3047 14 33.6551 14.4381 34.6502 15.3119C35.6452 16.1858 36.1452 17.3675 36.1452 18.8594ZM33.5179 26.8375C33.5179 25.9708 33.2507 25.2722 32.714 24.7394C32.1772 24.2066 31.4714 23.939 30.5915 23.939C29.7116 23.939 29.0082 24.2042 28.4813 24.7323C27.9544 25.2627 27.6897 25.9637 27.6897 26.8375C27.6897 27.6948 27.9495 28.3815 28.469 28.8954C28.9886 29.4093 29.7043 29.665 30.616 29.665C31.5302 29.665 32.241 29.4164 32.7507 28.9191C33.263 28.4218 33.5179 27.7279 33.5179 26.8375ZM33.1306 18.9683C33.1306 18.2058 32.9027 17.5782 32.4468 17.0856C31.991 16.5931 31.3758 16.3468 30.6038 16.3468C29.8317 16.3468 29.2215 16.5812 28.773 17.0501C28.3244 17.519 28.1014 18.1584 28.1014 18.9683C28.1014 19.7711 28.3269 20.4081 28.7803 20.8817C29.2337 21.3553 29.844 21.5922 30.616 21.5922C31.388 21.5922 32.0008 21.3553 32.4517 20.8817C32.9051 20.4081 33.1306 19.7711 33.1306 18.9683Z" fill="#9D5C63"/>
</svg>
